<?xml version="1.0" encoding="UTF-8" standalone="no"?>
<!-- Created with Inkscape (http://www.inkscape.org/) -->

<svg
   width="26.602118mm"
   height="69.642982mm"
   viewBox="0 0 26.602118 69.642982"
   version="1.1"
   id="svg1"
   inkscape:export-filename="human.svg"
   inkscape:export-xdpi="600"
   inkscape:export-ydpi="600"
   inkscape:version="1.3.2 (091e20e, 2023-11-25, custom)"
   sodipodi:docname="human_front.svg"
   xmlns:inkscape="http://www.inkscape.org/namespaces/inkscape"
   xmlns:sodipodi="http://sodipodi.sourceforge.net/DTD/sodipodi-0.dtd"
   xmlns="http://www.w3.org/2000/svg"
   xmlns:svg="http://www.w3.org/2000/svg">
  <sodipodi:namedview
     id="namedview1"
     pagecolor="#ffffff"
     bordercolor="#666666"
     borderopacity="1.0"
     inkscape:showpageshadow="2"
     inkscape:pageopacity="0.0"
     inkscape:pagecheckerboard="0"
     inkscape:deskcolor="#d1d1d1"
     inkscape:document-units="mm"
     inkscape:zoom="3.9660278"
     inkscape:cx="63.035363"
     inkscape:cy="103.25192"
     inkscape:window-width="1920"
     inkscape:window-height="1001"
     inkscape:window-x="-9"
     inkscape:window-y="-9"
     inkscape:window-maximized="1"
     inkscape:current-layer="layer1">
    <inkscape:page
       x="0"
       y="0"
       width="26.602119"
       height="69.642982"
       id="page1"
       margin="0.5"
       bleed="0" />
  </sodipodi:namedview>
  <defs
     id="defs1" />
  <g
     inkscape:label="Layer 1"
     inkscape:groupmode="layer"
     id="layer1"
     transform="translate(-88.773222,-85.471379)">
    <g
       id="g1">
      <g
         id="g1946"
         stroke="#000000"
         stroke-opacity="1"
         fill="#ebebeb"
         fill-opacity="1"
         style="fill:#bfbfbf;fill-opacity:1;stroke:#000000;stroke-width:0.217404;stroke-miterlimit:4;stroke-dasharray:none;stroke-opacity:1"
         transform="matrix(0.75916232,0,0,0.7587475,64.185134,36.103678)">
        <g
           id="g1936"
           stroke="#000000"
           stroke-opacity="1"
           fill="#ebebeb"
           fill-opacity="1"
           style="fill:#bfbfbf;fill-opacity:1;stroke:#000000;stroke-width:0.217404;stroke-miterlimit:4;stroke-dasharray:none;stroke-opacity:1">
          <path
             d="m 60.4486,99.9852 c -0.3813,-0.0292 -0.9374,0.0135 -1.409,0.1858 m -3.0322,30.447 c 0.8356,2.292 -3.1271,2.86 -2.7835,1.207 M 49.9092,65.854 c 2.9293,-0.2624 4.3703,1.9417 4.3703,1.9417 0,0 2.3624,4.0409 0.6615,9.0788 -1.1812,3.3587 -2.4805,2.7552 -2.7876,3.2012 -0.6842,1.3434 0.1558,2.5639 0.8505,3.3062 0.6947,0.7422 1.7699,0.4683 2.5513,0.8396 0,0 3.3073,1.0496 4.0633,3.2012 1.2993,1.7056 1.1339,8.8427 1.6064,12.3325 0.3066,0.4378 1.6988,8.0308 1.9369,9.7828 0,0 0.2617,1.404 0.6822,1.503 0.9293,0.348 1.1367,0.055 2.0176,1.695 0.1958,0.88 0.8658,0.806 0.7966,1.267 0,0 -0.4016,0.604 -1.63,-0.866 -0.756,0.289 1.1812,3.989 0.4725,4.461 -0.3454,0.209 -1.0371,-2.738 -1.2048,-2.44 -0.3544,0.787 0.7087,3.463 0.0472,3.437 -0.4489,-0.262 -0.4725,-2.02 -1.0158,-3.149 -0.5198,-0.026 0.0472,2.86 -0.4253,2.992 -0.2236,0.071 -0.46,-3.251 -0.624,-3.108 -0.4309,0.128 -0.3209,2.609 -0.817,2.242 -0.2027,-0.117 -0.3796,-3.846 -0.3802,-4.892 -6e-4,-1.046 0.2131,-0.81 0.2148,-1.379 0.1654,-0.348 -3.0238,-6.639 -3.0474,-10.811 -0.2835,-1.8368 -1.0394,-1.6007 -1.7718,-8.3704 -0.3853,2.8663 -0.3071,10.3384 0.1182,11.5974 0.7087,4.828 0.6614,16.374 0.6142,18.184 -0.3308,1.47 -0.7087,7.924 -0.2363,8.633 0.4253,1.732 0.2845,6.745 0.0482,7.873 -0.3668,0.984 -0.5088,10.245 -0.5088,10.245 -0.1491,1.074 1.5928,2.608 1.792,2.921 0.8348,0.872 1.5322,1.968 1.1806,2.117 -0.4232,0.102 -0.5136,-0.266 -0.8296,-0.381 -0.3161,-0.115 0.5918,0.894 0.2976,1.022 -0.0964,0.176 -0.9581,-0.749 -1.0296,-0.579 -0.1011,0.04 0.9217,1.346 0.4655,1.314 -0.3322,0.033 -0.7075,-0.816 -0.994,-0.998 -0.1486,-0.095 0.731,1.265 0.3826,1.496 -0.3509,0.162 -1.2715,-1.71 -1.2445,-1.456 0.3671,0.736 0.7781,1.881 0.1725,1.956 -0.723,0.219 -1.1831,-1.339 -1.5411,-2.038 -0.2473,-0.438 -2.1623,-2.743 -1.664,-4.285 0.3307,-1.627 -0.9686,-9.393 -1.1812,-10.758 -0.115,-1.122 -0.154,-3.69 -0.3544,-7.767 -0.8973,-2.823 -1.1811,-14.668 -1.1811,-14.668 M 39.3697,99.9852 c 0.3814,-0.0292 0.9375,0.0135 1.4091,0.1858 m 3.0322,30.447 c -0.8357,2.292 3.1271,2.86 2.7835,1.207 m 3.3147,-65.971 c -2.9293,-0.2624 -4.3704,1.9417 -4.3704,1.9417 0,0 -2.3623,4.0409 -0.6614,9.0788 1.1811,3.3587 2.4804,2.7552 2.7875,3.2012 0.6843,1.3434 -0.1557,2.5639 -0.8504,3.3062 -0.6947,0.7422 -1.77,0.4683 -2.5513,0.8396 0,0 -3.3073,1.0496 -4.0633,3.2012 -1.2993,1.7056 -1.1339,8.8427 -1.6064,12.3325 -0.3066,0.4378 -1.6989,8.0308 -1.9369,9.7828 0,0 -0.2617,1.404 -0.6822,1.503 -0.9293,0.348 -1.1367,0.055 -2.0176,1.695 -0.1959,0.88 -0.8659,0.806 -0.7967,1.267 0,0 0.4017,0.604 1.6301,-0.866 0.7559,0.289 -1.1812,3.989 -0.4725,4.461 0.3454,0.209 1.037,-2.738 1.2048,-2.44 0.3544,0.787 -0.7087,3.463 -0.0472,3.437 0.4488,-0.262 0.4725,-2.02 1.0158,-3.149 0.5197,-0.026 -0.0472,2.86 0.4252,2.992 0.2236,0.071 0.4601,-3.251 0.624,-3.108 0.431,0.128 0.321,2.609 0.8171,2.242 0.2026,-0.117 0.3796,-3.846 0.3802,-4.892 6e-4,-1.046 -0.2132,-0.81 -0.2149,-1.379 -0.1653,-0.348 3.0238,-6.639 3.0475,-10.811 0.2834,-1.8368 1.0394,-1.6007 1.7717,-8.3704 0.3854,2.8663 0.3071,10.3384 -0.1181,11.5974 -0.7087,4.828 -0.6615,16.374 -0.6142,18.184 0.3307,1.47 0.7087,7.924 0.2362,8.633 -0.4252,1.732 -0.2844,6.745 -0.0482,7.873 0.3669,0.984 0.5089,10.245 0.5089,10.245 0.1491,1.074 -1.5928,2.608 -1.792,2.921 -0.8348,0.872 -1.5323,1.968 -1.1806,2.117 0.4232,0.102 0.5135,-0.266 0.8296,-0.381 0.3161,-0.115 -0.5918,0.894 -0.2976,1.022 0.0964,0.176 0.9581,-0.749 1.0296,-0.579 0.1011,0.04 -0.9217,1.346 -0.4656,1.314 0.3322,0.033 0.7076,-0.816 0.9941,-0.998 0.1486,-0.095 -0.731,1.265 -0.3826,1.496 0.3509,0.162 1.2715,-1.71 1.2445,-1.456 -0.3672,0.736 -0.7781,1.881 -0.1725,1.956 0.723,0.219 1.1831,-1.339 1.5411,-2.038 0.2473,-0.438 2.1623,-2.743 1.664,-4.285 -0.3307,-1.627 0.9686,-9.393 1.1812,-10.758 0.115,-1.122 0.154,-3.69 0.3543,-7.767 0.8974,-2.823 1.1812,-14.668 1.1812,-14.668 M 47.5114,79.9694 c 0.4337,0.05906 2.434337,0.612053 4.8783,-0.059 m -3.855,36.4256 c 0.2228,0.261 2.4072,0.29 2.6511,0.031"
             id="path1227-7"
             stroke="#000000"
             stroke-width="0.104585"
             stroke-linecap="butt"
             stroke-linejoin="miter"
             stroke-miterlimit="4"
             stroke-dasharray="none"
             stroke-opacity="1"
             fill="#ebebeb"
             fill-opacity="1"
             style="fill:#bfbfbf;fill-opacity:1;stroke:#000000;stroke-width:0.217404;stroke-miterlimit:4;stroke-dasharray:none;stroke-opacity:1"
             sodipodi:nodetypes="ccccccccccccccccccccccccsccccccccccsccccccccccccccccccccccccccccccccccccsccccccccccscccccccccccccccc" />
        </g>
      </g>
      <path
         d="m 101.5445,96.909749 c -0.36283,-0.0346 -1.02469,-0.169642 -1.20599,-0.249722 -0.0444,-0.0196 -0.23011,-0.08388 -0.341396,-0.122498 -0.34087,-0.11822 -0.58391,-0.29167 -0.82295,-0.58728 -0.60727,-0.75091 -1.0799,-2.11803 -1.2291,-3.55511 -0.0352,-0.33955 -0.0296,-1.35467 0.009,-1.69384 0.12182,-1.05917 0.38027,-1.99832 0.77634,-2.8213 0.14388,-0.29891 0.23859,-0.431514 0.47639,-0.666954 0.5873,-0.581489 1.343376,-0.938233 2.157946,-1.018184 0.22736,-0.02232 1.17998,-0.02255 1.4168,-3.53e-4 0.79955,0.07495 1.55953,0.431044 2.14393,1.004543 0.29941,0.29382 0.38283,0.416848 0.56979,0.840478 0.34628,0.7846 0.58543,1.68981 0.69371,2.62592 0.0403,0.34842 0.0552,1.14741 0.0283,1.51525 -0.0835,1.14049 -0.37856,2.25085 -0.82851,3.11807 -0.30637,0.59056 -0.66691,0.90245 -1.01037,1.14648 -0.38586,0.27414 -1.62272,0.51389 -2.09447,0.458549 -0.53363,-0.15593 -0.47156,0.03149 -0.73981,0.006 z"
         id="path1966"
         stroke="none"
         stroke-width="0.0352928"
         stroke-linecap="round"
         stroke-linejoin="round"
         stroke-miterlimit="4"
         stroke-dasharray="none"
         stroke-dashoffset="0"
         stroke-opacity="1"
         fill="#ebebeb"
         fill-rule="evenodd"
         fill-opacity="1"
         opacity="1"
         style="fill:#bfbfbf;fill-opacity:1;stroke:#000000;stroke-width:0;stroke-miterlimit:4;stroke-dasharray:none;stroke-opacity:1"
         sodipodi:nodetypes="sscccscsssscsccscss" />
      <path
         d="m 100.73804,97.159789 c -0.21196,1.46188 -0.23094,2.934531 -0.37465,4.400501 -0.607026,7.56441 -1.136616,15.1292 -1.828816,22.69316 -0.31513,0.28377 1.33703,0.14871 2.057626,0.1783 1.39405,-0.004 2.79364,0.008 4.18443,-0.0114 0.46658,-0.17299 0.038,-0.42793 0.15737,-0.63204 -0.70534,-8.85154 -1.43603,-17.90177 -2.15481,-26.752941 -0.7681,0.0758 -1.06869,-0.018 -1.82443,0.0318 l -0.15386,0.086 z"
         id="path1999"
         stroke="none"
         stroke-width="0.0398513"
         stroke-linecap="round"
         stroke-linejoin="round"
         stroke-miterlimit="4"
         stroke-dasharray="none"
         stroke-dashoffset="0"
         stroke-opacity="1"
         fill="#ebebeb"
         fill-rule="evenodd"
         fill-opacity="1"
         opacity="1"
         style="fill:#bfbfbf;fill-opacity:1;stroke:none;stroke-width:0.165;stroke-miterlimit:4;stroke-dasharray:none;stroke-opacity:1"
         sodipodi:nodetypes="cccccccccc" />
    </g>
  </g>
</svg>
