<?xml version="1.0" encoding="UTF-8" standalone="no"?>
<svg
   width="34.806274mm"
   height="91.55101mm"
   viewBox="0 0 34.806274 91.55101"
   version="1.1"
   id="svg1279"
   inkscape:version="1.3.2 (091e20e, 2023-11-25, custom)"
   sodipodi:docname="human_front_wound.svg"
   xmlns:inkscape="http://www.inkscape.org/namespaces/inkscape"
   xmlns:sodipodi="http://sodipodi.sourceforge.net/DTD/sodipodi-0.dtd"
   xmlns="http://www.w3.org/2000/svg"
   xmlns:svg="http://www.w3.org/2000/svg"
   xmlns:rdf="http://www.w3.org/1999/02/22-rdf-syntax-ns#"
   xmlns:cc="http://creativecommons.org/ns#"
   xmlns:dc="http://purl.org/dc/elements/1.1/">
  <defs
     id="defs1273">
    <inkscape:path-effect
       effect="bspline"
       id="path-effect6"
       is_visible="true"
       lpeversion="1.3"
       weight="33.333333"
       steps="2"
       helper_size="0"
       apply_no_weight="true"
       apply_with_weight="true"
       only_selected="false"
       uniform="false" />
    <inkscape:path-effect
       effect="bspline"
       id="path-effect4"
       is_visible="true"
       lpeversion="1.3"
       weight="33.333333"
       steps="2"
       helper_size="0"
       apply_no_weight="true"
       apply_with_weight="true"
       only_selected="false"
       uniform="false" />
    <inkscape:path-effect
       effect="bspline"
       id="path-effect2"
       is_visible="true"
       lpeversion="1.3"
       weight="33.333333"
       steps="2"
       helper_size="0"
       apply_no_weight="true"
       apply_with_weight="true"
       only_selected="false"
       uniform="false" />
    <inkscape:path-effect
       effect="spiro"
       id="path-effect1"
       is_visible="true"
       lpeversion="1" />
  </defs>
  <sodipodi:namedview
     id="base"
     pagecolor="#ffffff"
     bordercolor="#666666"
     borderopacity="1.0"
     inkscape:pageopacity="0.0"
     inkscape:pageshadow="2"
     inkscape:zoom="2.8284271"
     inkscape:cx="73.185552"
     inkscape:cy="137.00194"
     inkscape:document-units="mm"
     inkscape:current-layer="layer1"
     showgrid="false"
     inkscape:window-width="1920"
     inkscape:window-height="1001"
     inkscape:window-x="-9"
     inkscape:window-y="-9"
     inkscape:window-maximized="1"
     showguides="false"
     inkscape:document-rotation="0"
     inkscape:showpageshadow="2"
     inkscape:pagecheckerboard="0"
     inkscape:deskcolor="#d1d1d1">
    <inkscape:page
       x="0"
       y="0"
       width="34.806274"
       height="91.55101"
       id="page1"
       margin="0.5"
       bleed="0" />
  </sodipodi:namedview>
  <metadata
     id="metadata1276">
    <rdf:RDF>
      <cc:Work
         rdf:about="">
        <dc:format>image/svg+xml</dc:format>
        <dc:type
           rdf:resource="http://purl.org/dc/dcmitype/StillImage" />
      </cc:Work>
    </rdf:RDF>
  </metadata>
  <g
     inkscape:label="Layer 1"
     inkscape:groupmode="layer"
     id="layer1"
     transform="translate(-32.506049,-65.182474)">
    <g
       id="g1946"
       style="fill:#ebebeb;fill-opacity:1;stroke:#000000;stroke-opacity:1">
      <g
         id="g1936"
         style="fill:#ebebeb;fill-opacity:1;stroke:#000000;stroke-opacity:1">
        <path
           id="path1227-7"
           style="fill:#ebebeb;fill-opacity:1;stroke:#000000;stroke-width:0.3;stroke-linecap:butt;stroke-linejoin:miter;stroke-miterlimit:4;stroke-dasharray:none;stroke-opacity:1"
           d="m 60.448643,99.98515 c -0.38134,-0.02913 -0.93747,0.0136 -1.40904,0.18585 m -3.03219,30.44746 c 0.83563,2.29149 -3.1271,2.85985 -2.78351,1.2068 m -3.31472,-65.97124 c 2.92932,-0.2624 4.37036,1.9417 4.37036,1.9417 0,0 2.36236,4.040871 0.66145,9.078808 -1.18117,3.35864 -2.48047,2.75513 -2.78757,3.2012 -0.68426,1.343321 0.15576,2.563903 0.85045,3.30615 0.69469,0.742247 1.76995,0.46829 2.55134,0.83967 0,0 3.30729,1.04957 4.06325,3.20119 1.29929,1.70555 1.13393,8.842641 1.60639,12.332482 0.3066,0.43786 1.69889,8.03032 1.93694,9.78234 0,0 0.26167,1.40478 0.68217,1.5033 0.92935,0.34772 1.1367,0.0551 2.01762,1.69558 0.19584,0.87955 0.86584,0.80552 0.79664,1.26672 0,0 -0.40161,0.6035 -1.63003,-0.86588 -0.75595,0.28861 1.18118,3.98835 0.47247,4.46067 -0.34538,0.20865 -1.03704,-2.73775 -1.2048,-2.44026 -0.35435,0.78718 0.70871,3.46359 0.0472,3.43736 -0.44884,-0.2624 -0.47247,-2.02043 -1.01581,-3.14873 -0.51972,-0.0262 0.0472,2.86009 -0.42522,2.99128 -0.22359,0.0719 -0.46007,-3.2503 -0.624,-3.10711 -0.43095,0.12775 -0.32095,2.60857 -0.81703,2.24122 -0.20266,-0.11645 -0.37962,-3.84558 -0.38023,-4.89148 -5.3e-4,-1.04592 0.21316,-0.80989 0.21486,-1.37972 0.16536,-0.34732 -3.0238,-6.63854 -3.04742,-10.81059 -0.28349,-1.836751 -1.03943,-1.60061 -1.77177,-8.370342 -0.38539,2.86631 -0.3071,10.338302 0.11812,11.597772 0.7087,4.82804 0.66146,16.37333 0.61421,18.18385 -0.33073,1.46939 -0.70871,7.92427 -0.23623,8.63273 0.42522,1.7318 0.28442,6.7451 0.0482,7.87339 -0.36685,0.9832 -0.50884,10.24486 -0.50884,10.24486 -0.14913,1.07379 1.5928,2.60806 1.79197,2.92125 0.83481,0.87126 1.53227,1.96727 1.18058,2.1167 -0.42315,0.10194 -0.51352,-0.26586 -0.82958,-0.3812 -0.31606,-0.11533 0.59182,0.89419 0.29762,1.02234 -0.0964,0.17538 -0.9581,-0.74927 -1.02964,-0.57924 -0.10107,0.0401 0.92175,1.34576 0.46558,1.31394 -0.33219,0.0331 -0.70757,-0.81559 -0.99405,-0.99801 -0.14862,-0.0946 0.73103,1.265 0.38261,1.49576 -0.35089,0.16243 -1.2715,-1.70942 -1.24451,-1.45546 0.36716,0.73525 0.77812,1.88069 0.17252,1.95576 -0.72304,0.21935 -1.18309,-1.33889 -1.54113,-2.03849 -0.2473,-0.43793 -2.16227,-2.74272 -1.66401,-4.28433 0.33073,-1.62679 -0.96856,-9.39367 -1.18118,-10.75812 -0.11503,-1.12167 -0.15403,-3.68969 -0.35435,-7.76684 -0.89736,-2.82299 -1.18118,-14.66778 -1.18118,-14.66778 M 39.369731,99.98515 c 0.381338,-0.02913 0.937465,0.0136 1.409036,0.18585 m 3.032186,30.44746 c -0.835627,2.29149 3.1271,2.85985 2.78352,1.2068 m 3.31471,-65.97124 c -2.92932,-0.2624 -4.370358,1.9417 -4.370358,1.9417 0,0 -2.36236,4.040871 -0.66145,9.078808 1.18117,3.35864 2.480468,2.75513 2.787568,3.2012 0.68427,1.343321 -0.15576,2.563903 -0.85045,3.30615 -0.694687,0.742247 -1.769948,0.46829 -2.551338,0.83967 0,0 -3.30729,1.04957 -4.06325,3.20119 -1.299286,1.70555 -1.133927,8.842641 -1.606386,12.332482 -0.306601,0.43786 -1.698891,8.03032 -1.936941,9.78234 0,0 -0.26167,1.40478 -0.68217,1.5033 -0.92935,0.34772 -1.1367,0.0551 -2.01762,1.69558 -0.19584,0.87955 -0.86584,0.80552 -0.79664,1.26672 0,0 0.40161,0.6035 1.63003,-0.86588 0.75595,0.28861 -1.18118,3.98835 -0.47247,4.46067 0.34538,0.20865 1.03704,-2.73775 1.2048,-2.44026 0.35435,0.78718 -0.70871,3.46359 -0.0472,3.43736 0.44884,-0.2624 0.47247,-2.02043 1.01581,-3.14873 0.51972,-0.0262 -0.0472,2.86009 0.425221,2.99128 0.223589,0.0719 0.460069,-3.2503 0.624,-3.10711 0.430949,0.12775 0.320949,2.60857 0.817029,2.24122 0.20266,-0.11645 0.37962,-3.84558 0.38023,-4.89148 6.08e-4,-1.04592 -0.21316,-0.80989 -0.214859,-1.37972 -0.165361,-0.34732 3.023796,-6.63854 3.047416,-10.81059 0.28349,-1.836751 1.03943,-1.60061 1.77177,-8.370342 0.38539,2.86631 0.3071,10.338302 -0.11812,11.597772 -0.7087,4.82804 -0.66146,16.37333 -0.61421,18.18385 0.33073,1.46939 0.70871,7.92427 0.23623,8.63273 -0.42522,1.7318 -0.28442,6.7451 -0.0482,7.87339 0.36685,0.9832 0.50884,10.24486 0.50884,10.24486 0.14913,1.07379 -1.5928,2.60806 -1.79197,2.92125 -0.83481,0.87126 -1.532266,1.96727 -1.18058,2.1167 0.42315,0.10194 0.51352,-0.26586 0.82958,-0.3812 0.31606,-0.11533 -0.59182,0.89419 -0.29762,1.02234 0.0964,0.17538 0.9581,-0.74927 1.02964,-0.57924 0.10107,0.0401 -0.92175,1.34576 -0.46558,1.31394 0.33219,0.0331 0.70757,-0.81559 0.99405,-0.99801 0.14862,-0.0946 -0.73103,1.265 -0.38261,1.49576 0.35089,0.16243 1.2715,-1.70942 1.24451,-1.45546 -0.36716,0.73525 -0.77812,1.88069 -0.17252,1.95576 0.72304,0.21935 1.18309,-1.33889 1.54113,-2.03849 0.2473,-0.43793 2.162268,-2.74272 1.664008,-4.28433 -0.330728,-1.62679 0.96856,-9.39367 1.18118,-10.75812 0.11503,-1.12167 0.15403,-3.68969 0.35435,-7.76684 0.89736,-2.82299 1.18118,-14.66778 1.18118,-14.66778 m -1.52382,-36.579038 c 0.43368,0.06567 2.24762,0.820211 4.87827,-0.05906 m -3.855,36.425478 c 0.22283,0.26095 2.40725,0.28971 2.65117,0.0309" />
      </g>
    </g>
    <path
       style="opacity:1;vector-effect:none;fill:#ebebeb;fill-opacity:1;fill-rule:evenodd;stroke:none;stroke-width:0.101237;stroke-linecap:round;stroke-linejoin:round;stroke-miterlimit:4;stroke-dasharray:none;stroke-dashoffset:0;stroke-opacity:1;paint-order:normal"
       d="m 61.248467,54.642826 c -1.80641,-0.172175 -5.392052,-0.928098 -6.294643,-1.327033 -0.220982,-0.09767 -0.85507,-0.334883 -1.409083,-0.527136 -1.697033,-0.588901 -2.907017,-1.452818 -4.097185,-2.925348 -3.023215,-3.740463 -5.376292,-10.550511 -6.119008,-17.709045 -0.175479,-1.69132 -0.147445,-6.748008 0.04678,-8.4375 0.606516,-5.275954 1.893154,-9.954197 3.865113,-14.0536369 0.716238,-1.4889642 1.18776,-2.1494943 2.371626,-3.3222824 2.923924,-2.8965635 6.68816,-4.6736032 10.743547,-5.071868 1.131904,-0.1111602 5.874583,-0.1123415 7.053571,-0.00176 3.980635,0.3733687 7.76426,2.147154 10.673745,5.003913 1.490611,1.4635991 1.905836,2.0764312 2.836699,4.1867023 1.723964,3.908239 2.914531,8.417385 3.453655,13.080357 0.200663,1.735567 0.2749,5.715652 0.140786,7.54794 -0.415826,5.681073 -1.88467,11.212112 -4.124734,15.53199 -1.525387,2.941648 -3.148269,4.784125 -5.03023,5.710875 -1.876919,0.924267 -5.966305,1.98053 -8.817917,2.277614 -1.40161,0.146022 -3.95719,0.163507 -5.292718,0.03621 z"
       id="path1966"
       inkscape:connector-curvature="0"
       transform="matrix(0.26458333,0,0,0.26458333,33.006049,65.682472)" />
    <path
       style="opacity:1;vector-effect:none;fill:#ebebeb;fill-opacity:1;fill-rule:evenodd;stroke:none;stroke-width:0.114313;stroke-linecap:round;stroke-linejoin:round;stroke-miterlimit:4;stroke-dasharray:none;stroke-dashoffset:0;stroke-opacity:1;paint-order:normal"
       d="m 48.148955,80.469551 c -0.279174,1.926758 -0.304191,3.867691 -0.493468,5.799743 -0.799625,9.969632 -1.497174,19.939736 -2.409019,29.908886 -0.415074,0.37355 1.76124,0.19536 2.710466,0.23482 1.836225,-0.005 3.679877,0.01 5.511884,-0.0146 0.614611,-0.22818 0.05006,-0.56446 0.207296,-0.83381 -0.929123,-11.66594 -1.817715,-23.332722 -2.764495,-34.998163 -0.334146,-0.218455 -1.743723,-0.08599 -2.484928,-0.125408 l -0.194887,0.02001 z"
       id="path1999"
       inkscape:connector-curvature="0" />
    <g
       id="g6">
      <path
         style="fill:#b21313;fill-opacity:0.39321;stroke:none;stroke-width:0.509072;stroke-linecap:square;stroke-miterlimit:5.5;paint-order:markers stroke fill"
         d="m 59.064751,90.837181 c -0.399631,0.135048 -1.198893,0.405143 -1.63711,0.85439 -0.438217,0.449247 -0.515386,1.077619 -0.399628,1.650888 0.115759,0.573269 0.424433,1.091402 0.840606,1.422132 0.416173,0.330731 0.939817,0.474044 1.378036,0.421676 0.43822,-0.05237 0.790992,-0.30041 0.931551,-0.59807 0.140558,-0.29766 0.0689,-0.644918 -0.01103,-0.9977 -0.07993,-0.352782 -0.168119,-0.711057 -0.201688,-0.984721 -0.03357,-0.273663 -0.01251,-0.462683 0.02056,-0.732784 0.03307,-0.270101 0.07816,-0.621259 -0.0068,-0.829914 -0.08495,-0.208655 -0.299913,-0.274799 -0.4074,-0.307872 -0.107487,-0.03307 -0.10749,-0.03307 -0.507121,0.101975 z"
         id="path1"
         inkscape:path-effect="#path-effect2"
         inkscape:original-d="m 59.464382,90.702133 c -0.799262,0.270096 -1.598524,0.540191 -2.397786,0.810287 -0.07717,0.628398 -0.154341,1.25677 -0.231511,1.885156 0.308687,0.518152 0.617361,1.036285 0.926042,1.554427 0.523665,0.143319 1.047309,0.286631 1.570963,0.429948 0.352785,-0.248052 0.705557,-0.496094 1.058334,-0.744141 -0.07166,-0.347273 -0.143317,-0.694531 -0.214974,-1.041797 -0.0882,-0.358297 -0.176388,-0.716573 -0.264584,-1.074869 0.02106,-0.189031 0.04211,-0.378051 0.06317,-0.567083 0.04509,-0.35117 0.09018,-0.702328 0.135271,-1.05349 -0.214979,-0.06615 -0.429948,-0.132292 -0.644922,-0.198438 z"
         sodipodi:nodetypes="ccccccccccc"
         transform="matrix(0.51973557,0,0,0.51973557,30.322654,55.885245)" />
      <path
         style="fill:#b21313;fill-opacity:0.39321;stroke:none;stroke-width:0.58928;stroke-linecap:square;stroke-miterlimit:5.5;paint-order:markers stroke fill"
         d="m 59.172238,90.870254 c -0.507118,0.101975 -1.30638,0.37207 -1.744597,0.821317 -0.438217,0.449247 -0.515386,1.077619 -0.399628,1.650888 0.115759,0.573269 0.424433,1.091402 0.840606,1.422132 0.416173,0.330731 0.939817,0.474044 1.378036,0.421676 0.43822,-0.05237 0.790992,-0.30041 0.931551,-0.59807 0.140558,-0.29766 0.0689,-0.644918 -0.01103,-0.9977 -0.07993,-0.352782 -0.168119,-0.711057 -0.23299,-0.995694 -0.06487,-0.284637 -0.106415,-0.4956 -0.07334,-0.765701 0.03307,-0.270101 0.140763,-0.599313 0.08712,-0.796996 -0.05365,-0.197683 -0.268613,-0.263827 -0.775731,-0.161852 z"
         id="path2"
         inkscape:path-effect="#path-effect4"
         inkscape:original-d="m 59.464382,90.702133 c -0.799262,0.270096 -1.598524,0.540191 -2.397786,0.810287 -0.07717,0.628398 -0.154341,1.25677 -0.231511,1.885156 0.308687,0.518152 0.617361,1.036285 0.926042,1.554427 0.523665,0.143319 1.047309,0.286631 1.570963,0.429948 0.352785,-0.248052 0.705557,-0.496094 1.058334,-0.744141 -0.07166,-0.347273 -0.143317,-0.694531 -0.214974,-1.041797 -0.0882,-0.358297 -0.176388,-0.716573 -0.264584,-1.074869 -0.04155,-0.210977 -0.08309,-0.421941 -0.124636,-0.632917 0.107693,-0.329226 0.215383,-0.658438 0.323074,-0.987656 -0.214979,-0.06615 -0.429948,-0.132292 -0.644922,-0.198438 z"
         sodipodi:nodetypes="ccccccccccc"
         transform="matrix(0.44899393,0,0,0.44899393,34.469454,62.464921)" />
      <path
         style="fill:#b21313;fill-opacity:0.39321;stroke:none;stroke-width:0.789752;stroke-linecap:square;stroke-miterlimit:5.5;paint-order:markers stroke fill"
         d="m 59.172238,90.870254 c -0.507118,0.101975 -1.30638,0.37207 -1.744597,0.821317 -0.438217,0.449247 -0.515386,1.077619 -0.399628,1.650888 0.115759,0.573269 0.424433,1.091402 0.840606,1.422132 0.416173,0.330731 0.939817,0.474044 1.378036,0.421676 0.43822,-0.05237 0.790992,-0.30041 0.931551,-0.59807 0.140558,-0.29766 0.0689,-0.644918 -0.01103,-0.9977 -0.07993,-0.352782 -0.168119,-0.711057 -0.216827,-0.998763 -0.04871,-0.287705 -0.05793,-0.50481 -0.02485,-0.774911 0.03307,-0.270102 0.108438,-0.593174 0.03863,-0.787787 -0.06981,-0.194613 -0.284775,-0.260757 -0.791893,-0.158782 z"
         id="path4"
         inkscape:path-effect="#path-effect6"
         inkscape:original-d="m 59.464382,90.702133 c -0.799262,0.270096 -1.598524,0.540191 -2.397786,0.810287 -0.07717,0.628398 -0.154341,1.25677 -0.231511,1.885156 0.308687,0.518152 0.617361,1.036285 0.926042,1.554427 0.523665,0.143319 1.047309,0.286631 1.570963,0.429948 0.352785,-0.248052 0.705557,-0.496094 1.058334,-0.744141 -0.07166,-0.347273 -0.143317,-0.694531 -0.214974,-1.041797 -0.0882,-0.358297 -0.176388,-0.716573 -0.264584,-1.074869 -0.0092,-0.217116 -0.01844,-0.43422 -0.02766,-0.651336 0.07537,-0.323086 0.150732,-0.646159 0.226098,-0.969237 -0.214979,-0.06615 -0.429948,-0.132292 -0.644922,-0.198438 z"
         sodipodi:nodetypes="ccccccccccc"
         transform="matrix(0.33502129,0,0,0.33502129,41.150409,73.065508)" />
    </g>
  </g>
</svg>
