<?xml version="1.0" encoding="UTF-8" standalone="no"?>
<!-- Created with Inkscape (http://www.inkscape.org/) -->

<svg
   width="19.651751mm"
   height="14.649424mm"
   viewBox="0 0 19.651751 14.649424"
   version="1.1"
   id="svg1"
   inkscape:version="1.3.2 (091e20e, 2023-11-25, custom)"
   sodipodi:docname="wound.svg"
   xmlns:inkscape="http://www.inkscape.org/namespaces/inkscape"
   xmlns:sodipodi="http://sodipodi.sourceforge.net/DTD/sodipodi-0.dtd"
   xmlns="http://www.w3.org/2000/svg"
   xmlns:svg="http://www.w3.org/2000/svg">
  <sodipodi:namedview
     id="namedview1"
     pagecolor="#ffffff"
     bordercolor="#666666"
     borderopacity="1.0"
     inkscape:showpageshadow="2"
     inkscape:pageopacity="0.0"
     inkscape:pagecheckerboard="0"
     inkscape:deskcolor="#d1d1d1"
     inkscape:document-units="mm"
     inkscape:zoom="2.8685466"
     inkscape:cx="31.723382"
     inkscape:cy="63.969677"
     inkscape:window-width="1920"
     inkscape:window-height="1001"
     inkscape:window-x="-9"
     inkscape:window-y="-9"
     inkscape:window-maximized="1"
     inkscape:current-layer="layer1">
    <inkscape:page
       x="0"
       y="0"
       width="19.651752"
       height="14.649424"
       id="page1"
       margin="0.50000006"
       bleed="0" />
  </sodipodi:namedview>
  <defs
     id="defs1">
    <inkscape:path-effect
       effect="bspline"
       id="path-effect2"
       is_visible="true"
       lpeversion="1.3"
       weight="33.333333"
       steps="2"
       helper_size="0"
       apply_no_weight="true"
       apply_with_weight="true"
       only_selected="false"
       uniform="false" />
    <inkscape:path-effect
       effect="bspline"
       id="path-effect4"
       is_visible="true"
       lpeversion="1.3"
       weight="33.333333"
       steps="2"
       helper_size="0"
       apply_no_weight="true"
       apply_with_weight="true"
       only_selected="false"
       uniform="false" />
    <inkscape:path-effect
       effect="bspline"
       id="path-effect6"
       is_visible="true"
       lpeversion="1.3"
       weight="33.333333"
       steps="2"
       helper_size="0"
       apply_no_weight="true"
       apply_with_weight="true"
       only_selected="false"
       uniform="false" />
  </defs>
  <g
     inkscape:label="Layer 1"
     inkscape:groupmode="layer"
     id="layer1"
     transform="translate(-92.447048,-134.41312)">
    <g
       id="g6"
       transform="matrix(0,-8.0107324,8.0107324,0,-732.43125,628.70227)"
       style="stroke-width:0.124833">
      <path
         style="fill:#b21313;fill-opacity:0.39321;stroke:none;stroke-width:0.0635489;stroke-linecap:square;stroke-miterlimit:5.5;paint-order:markers stroke fill"
         d="m 59.064751,90.837181 c -0.399631,0.135048 -1.198893,0.405143 -1.63711,0.85439 -0.438217,0.449247 -0.515386,1.077619 -0.399628,1.650888 0.115759,0.573269 0.424433,1.091402 0.840606,1.422132 0.416173,0.330731 0.939817,0.474044 1.378036,0.421676 0.43822,-0.05237 0.790992,-0.30041 0.931551,-0.59807 0.140558,-0.29766 0.0689,-0.644918 -0.01103,-0.9977 -0.07993,-0.352782 -0.168119,-0.711057 -0.201688,-0.984721 -0.03357,-0.273663 -0.01251,-0.462683 0.02056,-0.732784 0.03307,-0.270101 0.07816,-0.621259 -0.0068,-0.829914 -0.08495,-0.208655 -0.299913,-0.274799 -0.4074,-0.307872 -0.107487,-0.03307 -0.10749,-0.03307 -0.507121,0.101975 z"
         id="path1"
         inkscape:path-effect="#path-effect2"
         inkscape:original-d="m 59.464382,90.702133 c -0.799262,0.270096 -1.598524,0.540191 -2.397786,0.810287 -0.07717,0.628398 -0.154341,1.25677 -0.231511,1.885156 0.308687,0.518152 0.617361,1.036285 0.926042,1.554427 0.523665,0.143319 1.047309,0.286631 1.570963,0.429948 0.352785,-0.248052 0.705557,-0.496094 1.058334,-0.744141 -0.07166,-0.347273 -0.143317,-0.694531 -0.214974,-1.041797 -0.0882,-0.358297 -0.176388,-0.716573 -0.264584,-1.074869 0.02106,-0.189031 0.04211,-0.378051 0.06317,-0.567083 0.04509,-0.35117 0.09018,-0.702328 0.135271,-1.05349 -0.214979,-0.06615 -0.429948,-0.132292 -0.644922,-0.198438 z"
         sodipodi:nodetypes="ccccccccccc"
         transform="matrix(0.51973557,0,0,0.51973557,30.322654,55.885245)" />
      <path
         style="fill:#b21313;fill-opacity:0.39321;stroke:none;stroke-width:0.0735613;stroke-linecap:square;stroke-miterlimit:5.5;paint-order:markers stroke fill"
         d="m 59.172238,90.870254 c -0.507118,0.101975 -1.30638,0.37207 -1.744597,0.821317 -0.438217,0.449247 -0.515386,1.077619 -0.399628,1.650888 0.115759,0.573269 0.424433,1.091402 0.840606,1.422132 0.416173,0.330731 0.939817,0.474044 1.378036,0.421676 0.43822,-0.05237 0.790992,-0.30041 0.931551,-0.59807 0.140558,-0.29766 0.0689,-0.644918 -0.01103,-0.9977 -0.07993,-0.352782 -0.168119,-0.711057 -0.23299,-0.995694 -0.06487,-0.284637 -0.106415,-0.4956 -0.07334,-0.765701 0.03307,-0.270101 0.140763,-0.599313 0.08712,-0.796996 -0.05365,-0.197683 -0.268613,-0.263827 -0.775731,-0.161852 z"
         id="path2"
         inkscape:path-effect="#path-effect4"
         inkscape:original-d="m 59.464382,90.702133 c -0.799262,0.270096 -1.598524,0.540191 -2.397786,0.810287 -0.07717,0.628398 -0.154341,1.25677 -0.231511,1.885156 0.308687,0.518152 0.617361,1.036285 0.926042,1.554427 0.523665,0.143319 1.047309,0.286631 1.570963,0.429948 0.352785,-0.248052 0.705557,-0.496094 1.058334,-0.744141 -0.07166,-0.347273 -0.143317,-0.694531 -0.214974,-1.041797 -0.0882,-0.358297 -0.176388,-0.716573 -0.264584,-1.074869 -0.04155,-0.210977 -0.08309,-0.421941 -0.124636,-0.632917 0.107693,-0.329226 0.215383,-0.658438 0.323074,-0.987656 -0.214979,-0.06615 -0.429948,-0.132292 -0.644922,-0.198438 z"
         sodipodi:nodetypes="ccccccccccc"
         transform="matrix(0.44899393,0,0,0.44899393,34.469454,62.464921)" />
      <path
         style="fill:#b21313;fill-opacity:0.39321;stroke:none;stroke-width:0.0985869;stroke-linecap:square;stroke-miterlimit:5.5;paint-order:markers stroke fill"
         d="m 59.172238,90.870254 c -0.507118,0.101975 -1.30638,0.37207 -1.744597,0.821317 -0.438217,0.449247 -0.515386,1.077619 -0.399628,1.650888 0.115759,0.573269 0.424433,1.091402 0.840606,1.422132 0.416173,0.330731 0.939817,0.474044 1.378036,0.421676 0.43822,-0.05237 0.790992,-0.30041 0.931551,-0.59807 0.140558,-0.29766 0.0689,-0.644918 -0.01103,-0.9977 -0.07993,-0.352782 -0.168119,-0.711057 -0.216827,-0.998763 -0.04871,-0.287705 -0.05793,-0.50481 -0.02485,-0.774911 0.03307,-0.270102 0.108438,-0.593174 0.03863,-0.787787 -0.06981,-0.194613 -0.284775,-0.260757 -0.791893,-0.158782 z"
         id="path4"
         inkscape:path-effect="#path-effect6"
         inkscape:original-d="m 59.464382,90.702133 c -0.799262,0.270096 -1.598524,0.540191 -2.397786,0.810287 -0.07717,0.628398 -0.154341,1.25677 -0.231511,1.885156 0.308687,0.518152 0.617361,1.036285 0.926042,1.554427 0.523665,0.143319 1.047309,0.286631 1.570963,0.429948 0.352785,-0.248052 0.705557,-0.496094 1.058334,-0.744141 -0.07166,-0.347273 -0.143317,-0.694531 -0.214974,-1.041797 -0.0882,-0.358297 -0.176388,-0.716573 -0.264584,-1.074869 -0.0092,-0.217116 -0.01844,-0.43422 -0.02766,-0.651336 0.07537,-0.323086 0.150732,-0.646159 0.226098,-0.969237 -0.214979,-0.06615 -0.429948,-0.132292 -0.644922,-0.198438 z"
         sodipodi:nodetypes="ccccccccccc"
         transform="matrix(0.33502129,0,0,0.33502129,41.150409,73.065508)" />
    </g>
  </g>
</svg>
