<?xml version="1.0" encoding="UTF-8" standalone="no"?>
<svg
   width="73.066864mm"
   height="91.551018mm"
   viewBox="0 0 73.066864 91.551018"
   version="1.1"
   id="svg1279"
   inkscape:version="1.3.2 (091e20e, 2023-11-25, custom)"
   sodipodi:docname="human_front_back.svg"
   xmlns:inkscape="http://www.inkscape.org/namespaces/inkscape"
   xmlns:sodipodi="http://sodipodi.sourceforge.net/DTD/sodipodi-0.dtd"
   xmlns="http://www.w3.org/2000/svg"
   xmlns:svg="http://www.w3.org/2000/svg"
   xmlns:rdf="http://www.w3.org/1999/02/22-rdf-syntax-ns#"
   xmlns:cc="http://creativecommons.org/ns#"
   xmlns:dc="http://purl.org/dc/elements/1.1/">
  <defs
     id="defs1273" />
  <sodipodi:namedview
     id="base"
     pagecolor="#ffffff"
     bordercolor="#666666"
     borderopacity="1.0"
     inkscape:pageopacity="0.0"
     inkscape:pageshadow="2"
     inkscape:zoom="1.4142136"
     inkscape:cx="122.32947"
     inkscape:cy="284.61048"
     inkscape:document-units="mm"
     inkscape:current-layer="layer1"
     showgrid="false"
     inkscape:window-width="1920"
     inkscape:window-height="1001"
     inkscape:window-x="-9"
     inkscape:window-y="-9"
     inkscape:window-maximized="1"
     showguides="false"
     inkscape:document-rotation="0"
     inkscape:showpageshadow="2"
     inkscape:pagecheckerboard="0"
     inkscape:deskcolor="#d1d1d1">
    <inkscape:page
       x="0"
       y="0"
       width="73.066864"
       height="91.551018"
       id="page1"
       margin="0.5"
       bleed="0" />
  </sodipodi:namedview>
  <metadata
     id="metadata1276">
    <rdf:RDF>
      <cc:Work
         rdf:about="">
        <dc:format>image/svg+xml</dc:format>
        <dc:type
           rdf:resource="http://purl.org/dc/dcmitype/StillImage" />
      </cc:Work>
    </rdf:RDF>
  </metadata>
  <g
     inkscape:label="Layer 1"
     inkscape:groupmode="layer"
     id="layer1"
     transform="translate(-32.506049,-65.182472)">
    <path
       id="path925-4-6-0-5"
       style="fill:#ebebeb;fill-opacity:1;stroke:#000000;stroke-width:0.3;stroke-linecap:butt;stroke-linejoin:miter;stroke-miterlimit:4;stroke-dasharray:none;stroke-opacity:1"
       d="m 78.960793,101.07739 c -0.43466,0.23957 -0.94692,0.0573 -1.25772,-0.17993 m 4.88917,29.13977 c 0.74414,-0.3936 1.26385,-0.38049 1.90169,-0.0131 m 2.80179,-13.4757 c 0,0 0.72417,-0.45513 0.79504,-1.08487 0.0709,-0.62976 0.0317,-3.8744 0.0317,-3.8744 m 0.0473,-45.735142 c -2.92932,-0.2624 -4.37036,1.9417 -4.37036,1.9417 0,0 -2.36235,4.04087 -0.66145,9.07881 1.18117,3.35864 2.48047,2.75513 2.78757,3.2012 0.69164,1.28064 -0.0709,2.479658 -0.85045,3.30615 -0.45007,0.780538 -2.1243,0.468289 -2.55134,0.839669 0,0 -3.30728,1.04957 -4.06324,3.20119 -1.29929,1.70555 -1.13393,8.842642 -1.6064,12.33248 -0.3066,0.437863 -1.69889,8.030313 -1.93694,9.782343 0,0 -0.26167,1.40478 -0.68217,1.5033 -0.92935,0.34771 -1.1367,0.0551 -2.01762,1.69558 -0.19584,0.87955 -0.86584,0.80552 -0.79664,1.26672 0,0 0.40161,0.60349 1.63003,-0.86589 0.75595,0.28862 -1.18118,3.98836 -0.47247,4.46068 0.34538,0.20865 1.03704,-2.73775 1.2048,-2.44026 0.35435,0.78718 -0.70871,3.46359 -0.0472,3.43735 0.44884,-0.26239 0.47247,-2.02042 1.01581,-3.14872 0.51972,-0.0262 -0.0472,2.86009 0.42522,2.99128 0.22359,0.0719 0.46007,-3.2503 0.624,-3.10711 0.43095,0.12774 0.32095,2.60857 0.81703,2.24122 0.20266,-0.11645 0.37962,-3.84558 0.38023,-4.89148 5.3e-4,-1.04592 -0.21316,-0.80989 -0.21486,-1.37972 -0.16536,-0.34732 3.02381,-6.63854 3.04743,-10.81059 0.28349,-1.836754 1.03943,-1.600613 1.77177,-8.370343 0.38539,2.8663 0.3071,10.338303 -0.11812,11.597773 -0.7087,4.82804 -0.66146,16.37333 -0.61421,18.18385 0.33073,1.46939 0.70871,7.92427 0.23623,8.63273 -0.42522,1.7318 -0.28442,6.7451 -0.0482,7.87339 0.36685,0.9832 0.50884,10.24486 0.50884,10.24486 -0.11814,0.28869 -0.46066,1.7974 -0.95675,2.08603 -0.49609,0.28864 -3.25054,-0.58823 -1.18117,2.15162 1.13392,0.8659 1.03943,0.18367 2.17336,0.78718 1.13393,0.60351 2.95294,0.83966 3.28367,-0.0524 0.38044,-1.02624 0.0472,-3.25367 -0.30711,-3.88342 -0.33073,-1.62679 0.96856,-9.39367 1.18118,-10.75812 0.11503,-1.12167 0.15403,-3.68969 0.35435,-7.76684 0.89736,-2.82299 0.82683,-8.7377 1.18118,-14.66778 -0.80598,0.51686 -4.03355,1.59572 -4.89008,-1.95483 m 1.74809,37.61401 c 0.0304,0.11257 0.29984,0.82855 -0.0543,1.01089 -0.38016,0.42226 -1.99786,0.60274 -1.64657,-0.85345 m 14.92583,-51.28768 c 0.43466,0.23957 0.94693,0.0573 1.25772,-0.17993 m -4.88917,29.13977 c -0.74414,-0.3936 -1.26385,-0.38049 -1.90169,-0.0131 m -2.80178,-13.4757 c 0,0 -0.72417,-0.45513 -0.79505,-1.08487 -0.0709,-0.62976 -0.0317,-3.8744 -0.0317,-3.8744 m -0.0473,-45.735142 c 2.92932,-0.2624 4.37036,1.9417 4.37036,1.9417 0,0 2.36235,4.04087 0.66145,9.07881 -1.18117,3.35864 -2.48047,2.75513 -2.78757,3.2012 -0.69164,1.28064 0.22477,2.779149 0.85045,3.30615 0.63183,0.741806 2.04709,0.534301 2.55134,0.839669 0,0 3.30728,1.04957 4.06324,3.20119 1.29929,1.70555 1.13393,8.842642 1.6064,12.33248 0.30661,0.437863 1.698897,8.030313 1.936947,9.782343 0,0 0.26167,1.40478 0.68217,1.5033 0.92935,0.34771 1.1367,0.0551 2.01762,1.69558 0.19584,0.87955 0.86584,0.80552 0.79664,1.26672 0,0 -0.40161,0.60349 -1.63003,-0.86589 -0.75595,0.28862 1.18118,3.98836 0.47247,4.46068 -0.34538,0.20865 -1.03704,-2.73775 -1.2048,-2.44026 -0.35435,0.78718 0.70871,3.46359 0.0472,3.43735 -0.44885,-0.26239 -0.47248,-2.02042 -1.01582,-3.14872 -0.51972,-0.0262 0.0472,2.86009 -0.42522,2.99128 -0.22359,0.0719 -0.46006,-3.2503 -0.624,-3.10711 -0.43095,0.12774 -0.32095,2.60857 -0.817027,2.24122 -0.20266,-0.11645 -0.37962,-3.84558 -0.38023,-4.89148 -5.3e-4,-1.04592 0.21316,-0.80989 0.21486,-1.37972 0.16536,-0.34732 -3.02381,-6.63854 -3.04743,-10.81059 -0.28349,-1.836754 -1.03943,-1.600613 -1.77177,-8.370343 -0.38539,2.8663 -0.3071,10.338303 0.11812,11.597773 0.7087,4.82804 0.66146,16.37333 0.61421,18.18385 -0.33073,1.46939 -0.70871,7.92427 -0.23623,8.63273 0.42522,1.7318 0.28442,6.7451 0.0482,7.87339 -0.36685,0.9832 -0.50884,10.24486 -0.50884,10.24486 0.11814,0.28869 0.46066,1.7974 0.95675,2.08603 0.49609,0.28864 3.25054,-0.58823 1.18117,2.15162 -1.13392,0.8659 -1.03943,0.18367 -2.17336,0.78718 -1.13393,0.60351 -2.95294,0.83966 -3.28367,-0.0524 -0.38044,-1.02624 -0.0472,-3.25367 0.30711,-3.88342 0.33073,-1.62679 -0.96856,-9.39367 -1.18118,-10.75812 -0.11503,-1.12167 -0.15403,-3.68969 -0.35435,-7.76684 -0.89736,-2.82299 -0.82683,-8.7377 -1.18118,-14.66778 0.80598,0.51686 4.03355,1.59572 4.89008,-1.95483 m -1.74809,37.61401 c -0.0304,0.11257 -0.29984,0.82855 0.0543,1.01089 0.38016,0.42226 1.99786,0.60274 1.64657,-0.85345" />
    <g
       id="g1946"
       style="fill:#ebebeb;fill-opacity:1;stroke:#000000;stroke-opacity:1">
      <g
         id="g1936"
         style="fill:#ebebeb;fill-opacity:1;stroke:#000000;stroke-opacity:1">
        <path
           id="path1227-7"
           style="fill:#ebebeb;fill-opacity:1;stroke:#000000;stroke-width:0.3;stroke-linecap:butt;stroke-linejoin:miter;stroke-miterlimit:4;stroke-dasharray:none;stroke-opacity:1"
           d="m 60.448643,99.98515 c -0.38134,-0.02913 -0.93747,0.0136 -1.40904,0.18585 m -3.03219,30.44746 c 0.83563,2.29149 -3.1271,2.85985 -2.78351,1.2068 m -3.31472,-65.97124 c 2.92932,-0.2624 4.37036,1.9417 4.37036,1.9417 0,0 2.36236,4.040871 0.66145,9.078808 -1.18117,3.35864 -2.48047,2.75513 -2.78757,3.2012 -0.68426,1.343321 0.15576,2.563903 0.85045,3.30615 0.69469,0.742247 1.76995,0.46829 2.55134,0.83967 0,0 3.30729,1.04957 4.06325,3.20119 1.29929,1.70555 1.13393,8.842641 1.60639,12.332482 0.3066,0.43786 1.69889,8.03032 1.93694,9.78234 0,0 0.26167,1.40478 0.68217,1.5033 0.92935,0.34772 1.1367,0.0551 2.01762,1.69558 0.19584,0.87955 0.86584,0.80552 0.79664,1.26672 0,0 -0.40161,0.6035 -1.63003,-0.86588 -0.75595,0.28861 1.18118,3.98835 0.47247,4.46067 -0.34538,0.20865 -1.03704,-2.73775 -1.2048,-2.44026 -0.35435,0.78718 0.70871,3.46359 0.0472,3.43736 -0.44884,-0.2624 -0.47247,-2.02043 -1.01581,-3.14873 -0.51972,-0.0262 0.0472,2.86009 -0.42522,2.99128 -0.22359,0.0719 -0.46007,-3.2503 -0.624,-3.10711 -0.43095,0.12775 -0.32095,2.60857 -0.81703,2.24122 -0.20266,-0.11645 -0.37962,-3.84558 -0.38023,-4.89148 -5.3e-4,-1.04592 0.21316,-0.80989 0.21486,-1.37972 0.16536,-0.34732 -3.0238,-6.63854 -3.04742,-10.81059 -0.28349,-1.836751 -1.03943,-1.60061 -1.77177,-8.370342 -0.38539,2.86631 -0.3071,10.338302 0.11812,11.597772 0.7087,4.82804 0.66146,16.37333 0.61421,18.18385 -0.33073,1.46939 -0.70871,7.92427 -0.23623,8.63273 0.42522,1.7318 0.28442,6.7451 0.0482,7.87339 -0.36685,0.9832 -0.50884,10.24486 -0.50884,10.24486 -0.14913,1.07379 1.5928,2.60806 1.79197,2.92125 0.83481,0.87126 1.53227,1.96727 1.18058,2.1167 -0.42315,0.10194 -0.51352,-0.26586 -0.82958,-0.3812 -0.31606,-0.11533 0.59182,0.89419 0.29762,1.02234 -0.0964,0.17538 -0.9581,-0.74927 -1.02964,-0.57924 -0.10107,0.0401 0.92175,1.34576 0.46558,1.31394 -0.33219,0.0331 -0.70757,-0.81559 -0.99405,-0.99801 -0.14862,-0.0946 0.73103,1.265 0.38261,1.49576 -0.35089,0.16243 -1.2715,-1.70942 -1.24451,-1.45546 0.36716,0.73525 0.77812,1.88069 0.17252,1.95576 -0.72304,0.21935 -1.18309,-1.33889 -1.54113,-2.03849 -0.2473,-0.43793 -2.16227,-2.74272 -1.66401,-4.28433 0.33073,-1.62679 -0.96856,-9.39367 -1.18118,-10.75812 -0.11503,-1.12167 -0.15403,-3.68969 -0.35435,-7.76684 -0.89736,-2.82299 -1.18118,-14.66778 -1.18118,-14.66778 M 39.369731,99.98515 c 0.381338,-0.02913 0.937465,0.0136 1.409036,0.18585 m 3.032186,30.44746 c -0.835627,2.29149 3.1271,2.85985 2.78352,1.2068 m 3.31471,-65.97124 c -2.92932,-0.2624 -4.370358,1.9417 -4.370358,1.9417 0,0 -2.36236,4.040871 -0.66145,9.078808 1.18117,3.35864 2.480468,2.75513 2.787568,3.2012 0.68427,1.343321 -0.15576,2.563903 -0.85045,3.30615 -0.694687,0.742247 -1.769948,0.46829 -2.551338,0.83967 0,0 -3.30729,1.04957 -4.06325,3.20119 -1.299286,1.70555 -1.133927,8.842641 -1.606386,12.332482 -0.306601,0.43786 -1.698891,8.03032 -1.936941,9.78234 0,0 -0.26167,1.40478 -0.68217,1.5033 -0.92935,0.34772 -1.1367,0.0551 -2.01762,1.69558 -0.19584,0.87955 -0.86584,0.80552 -0.79664,1.26672 0,0 0.40161,0.6035 1.63003,-0.86588 0.75595,0.28861 -1.18118,3.98835 -0.47247,4.46067 0.34538,0.20865 1.03704,-2.73775 1.2048,-2.44026 0.35435,0.78718 -0.70871,3.46359 -0.0472,3.43736 0.44884,-0.2624 0.47247,-2.02043 1.01581,-3.14873 0.51972,-0.0262 -0.0472,2.86009 0.425221,2.99128 0.223589,0.0719 0.460069,-3.2503 0.624,-3.10711 0.430949,0.12775 0.320949,2.60857 0.817029,2.24122 0.20266,-0.11645 0.37962,-3.84558 0.38023,-4.89148 6.08e-4,-1.04592 -0.21316,-0.80989 -0.214859,-1.37972 -0.165361,-0.34732 3.023796,-6.63854 3.047416,-10.81059 0.28349,-1.836751 1.03943,-1.60061 1.77177,-8.370342 0.38539,2.86631 0.3071,10.338302 -0.11812,11.597772 -0.7087,4.82804 -0.66146,16.37333 -0.61421,18.18385 0.33073,1.46939 0.70871,7.92427 0.23623,8.63273 -0.42522,1.7318 -0.28442,6.7451 -0.0482,7.87339 0.36685,0.9832 0.50884,10.24486 0.50884,10.24486 0.14913,1.07379 -1.5928,2.60806 -1.79197,2.92125 -0.83481,0.87126 -1.532266,1.96727 -1.18058,2.1167 0.42315,0.10194 0.51352,-0.26586 0.82958,-0.3812 0.31606,-0.11533 -0.59182,0.89419 -0.29762,1.02234 0.0964,0.17538 0.9581,-0.74927 1.02964,-0.57924 0.10107,0.0401 -0.92175,1.34576 -0.46558,1.31394 0.33219,0.0331 0.70757,-0.81559 0.99405,-0.99801 0.14862,-0.0946 -0.73103,1.265 -0.38261,1.49576 0.35089,0.16243 1.2715,-1.70942 1.24451,-1.45546 -0.36716,0.73525 -0.77812,1.88069 -0.17252,1.95576 0.72304,0.21935 1.18309,-1.33889 1.54113,-2.03849 0.2473,-0.43793 2.162268,-2.74272 1.664008,-4.28433 -0.330728,-1.62679 0.96856,-9.39367 1.18118,-10.75812 0.11503,-1.12167 0.15403,-3.68969 0.35435,-7.76684 0.89736,-2.82299 1.18118,-14.66778 1.18118,-14.66778 m -1.52382,-36.579038 c 0.43368,0.06567 2.24762,0.820211 4.87827,-0.05906 m -3.855,36.425478 c 0.22283,0.26095 2.40725,0.28971 2.65117,0.0309" />
      </g>
    </g>
    <path
       style="opacity:1;vector-effect:none;fill:#ebebeb;fill-opacity:1;fill-rule:evenodd;stroke:none;stroke-width:0.101237;stroke-linecap:round;stroke-linejoin:round;stroke-miterlimit:4;stroke-dasharray:none;stroke-dashoffset:0;stroke-opacity:1;paint-order:normal"
       d="m 61.248467,54.642826 c -1.80641,-0.172175 -5.392052,-0.928098 -6.294643,-1.327033 -0.220982,-0.09767 -0.85507,-0.334883 -1.409083,-0.527136 -1.697033,-0.588901 -2.907017,-1.452818 -4.097185,-2.925348 -3.023215,-3.740463 -5.376292,-10.550511 -6.119008,-17.709045 -0.175479,-1.69132 -0.147445,-6.748008 0.04678,-8.4375 0.606516,-5.275954 1.893154,-9.954197 3.865113,-14.0536369 0.716238,-1.4889642 1.18776,-2.1494943 2.371626,-3.3222824 2.923924,-2.8965635 6.68816,-4.6736032 10.743547,-5.071868 1.131904,-0.1111602 5.874583,-0.1123415 7.053571,-0.00176 3.980635,0.3733687 7.76426,2.147154 10.673745,5.003913 1.490611,1.4635991 1.905836,2.0764312 2.836699,4.1867023 1.723964,3.908239 2.914531,8.417385 3.453655,13.080357 0.200663,1.735567 0.2749,5.715652 0.140786,7.54794 -0.415826,5.681073 -1.88467,11.212112 -4.124734,15.53199 -1.525387,2.941648 -3.148269,4.784125 -5.03023,5.710875 -1.876919,0.924267 -5.966305,1.98053 -8.817917,2.277614 -1.40161,0.146022 -3.95719,0.163507 -5.292718,0.03621 z"
       id="path1966"
       inkscape:connector-curvature="0"
       transform="matrix(0.26458333,0,0,0.26458333,33.006049,65.682472)" />
    <path
       style="opacity:1;vector-effect:none;fill:#ebebeb;fill-opacity:1;fill-rule:evenodd;stroke:none;stroke-width:0.114313;stroke-linecap:round;stroke-linejoin:round;stroke-miterlimit:4;stroke-dasharray:none;stroke-dashoffset:0;stroke-opacity:1;paint-order:normal"
       d="m 48.148955,80.469551 c -0.279174,1.926758 -0.304191,3.867691 -0.493468,5.799743 -0.799625,9.969632 -1.497174,19.939736 -2.409019,29.908886 -0.415074,0.37355 1.76124,0.19536 2.710466,0.23482 1.836225,-0.005 3.679877,0.01 5.511884,-0.0146 0.614611,-0.22818 0.05006,-0.56446 0.207296,-0.83381 -0.929123,-11.66594 -1.817715,-23.332722 -2.764495,-34.998163 -0.334146,-0.218455 -1.743723,-0.08599 -2.484928,-0.125408 l -0.194887,0.02001 z"
       id="path1999"
       inkscape:connector-curvature="0" />
    <path
       style="opacity:1;vector-effect:none;fill:#ebebeb;fill-opacity:1;fill-rule:evenodd;stroke:none;stroke-width:0.143171;stroke-linecap:round;stroke-linejoin:round;stroke-miterlimit:4;stroke-dasharray:none;stroke-dashoffset:0;stroke-opacity:1;paint-order:normal"
       d="m 201.2655,22.244254 c -11.15968,-8.576739 -6.13641,33.277592 -3.1212,26.310296 7.32817,11.686353 1.52417,19.1923 -5.87477,21.668846 -1.38674,10.476267 -8.7815,18.310333 -6.09103,40.909674 -0.82635,25.43291 -2.8334,52.19507 -2.61756,66.02742 -0.23667,2.55581 3.1913,4.984 3.15313,7.54949 0.11211,0.27946 0.49705,0.30311 0.4851,0.6851 0.893,3.58285 3.29942,7.06676 6.96495,8.18057 3.25645,0.9407 6.82237,0.31743 9.84897,-1.09511 0.66672,-0.41194 1.72462,-0.65298 1.64425,-1.62957 0.75774,-4.88518 1.74036,-9.74014 2.3089,-14.65207 0.0581,-0.80163 0.0267,-1.60589 0.0331,-2.40873 0.96285,-0.231 1.24605,0.21009 1.0386,1.13635 -0.0763,3.34384 0.8072,6.61126 1.26072,9.90401 0.4181,2.21112 0.66554,4.47606 1.22265,6.64989 1.06889,1.08807 2.64641,1.4791 4.05005,1.96585 2.26175,0.65402 4.72869,0.78833 7.01797,0.20292 2.4034,-0.70279 4.47859,-2.36391 5.6682,-4.57241 0.78704,-1.2391 1.18691,-2.67045 1.67884,-4.02646 0.84625,-0.0617 0.9284,-30.80172 0.90959,-31.32928 -2.42722,-44.45542 -6.42569,-56.494292 9.49201,-66.504637 -3.02171,-22.981567 -20.86229,-8.292411 -24.90625,-28.622119 2.14349,-21.210295 10.3498,-36.796944 8.83541,-48.482129 0.05,-1.0067086 -7.58536,9.648873 -8.20787,9.560304 -1.53445,0.06278 -12.55117,-3.034528 -13.11434,-1.626653 z"
       id="path2001"
       inkscape:connector-curvature="0"
       transform="matrix(0.26458333,0,0,0.26458333,33.006049,65.682472)"
       sodipodi:nodetypes="ccccccccccccccccccccccccsc" />
    <path
       style="opacity:1;vector-effect:none;fill:#ebebeb;fill-opacity:1;fill-rule:evenodd;stroke:none;stroke-width:0.143171;stroke-linecap:round;stroke-linejoin:round;stroke-miterlimit:4;stroke-dasharray:none;stroke-dashoffset:0;stroke-opacity:1;paint-order:normal"
       d="m 208.37637,1.972002 c -0.56329,0.3788568 -0.27579,1.2857145 -0.47657,1.8768638 -0.85743,7.1051792 -1.74652,14.2091512 -2.51887,21.3231052 0.24043,0.64728 1.16306,0.317935 1.68786,0.417033 1.47534,-0.03738 2.97939,0.03316 4.43548,-0.100341 0.36448,-0.417648 -0.0807,-1.133642 -0.0259,-1.673902 -0.89953,-7.187381 -1.61991,-14.4004556 -2.63196,-21.5717244 -0.0765,-0.1755671 -0.27692,-0.3041657 -0.47006,-0.2710346 z"
       id="path2003"
       inkscape:connector-curvature="0"
       transform="matrix(0.26458333,0,0,0.26458333,33.006049,65.682472)" />
    <path
       style="opacity:1;vector-effect:none;fill:#ebebeb;fill-opacity:1;fill-rule:evenodd;stroke:none;stroke-width:0.0178964;stroke-linecap:round;stroke-linejoin:round;stroke-miterlimit:4;stroke-dasharray:none;stroke-dashoffset:0;stroke-opacity:1;paint-order:normal"
       d="m 208.36625,1.2269059 c -0.0355,0.1481665 -0.091,0.4646274 -0.11837,0.7428071 0.0207,0.1257721 0.16493,0.09213 0.25395,0.099572 0.079,0.035064 0.2062,0.048096 0.23016,-0.061686 -0.001,-0.255349 -0.0412,-0.5494299 -0.0735,-0.8028934 l -0.24609,0.00725 z"
       id="path2013"
       inkscape:connector-curvature="0"
       transform="matrix(0.26458333,0,0,0.26458333,33.006049,65.682472)"
       sodipodi:nodetypes="ccccccc" />
    <path
       style="opacity:1;vector-effect:none;fill:#000000;fill-opacity:1;fill-rule:evenodd;stroke:none;stroke-width:0.00626374;stroke-linecap:round;stroke-linejoin:round;stroke-miterlimit:4;stroke-dasharray:none;stroke-dashoffset:0;stroke-opacity:1;paint-order:normal"
       d="m 208.35763,0.65437139 c -0.0184,0.11683429 -0.025,0.2890054 -0.037,0.40773521 -0.002,0.030113 -0.0333,0.1070645 -0.0333,0.1373015 0.0297,-0.00369 0.34441,0.017768 0.37121,0.0053 -0.0172,-0.1449378 -0.0811,-0.48226953 -0.10426,-0.62642769 0.19829,-0.1193425 -0.28325,0.0984978 -0.28625,0.0995348 z"
       id="path2021"
       inkscape:connector-curvature="0"
       transform="matrix(0.26458333,0,0,0.26458333,33.006049,65.682472)"
       sodipodi:nodetypes="ccccccc" />
    <path
       style="opacity:1;vector-effect:none;fill:#ebebeb;fill-opacity:1;fill-rule:evenodd;stroke:none;stroke-width:0.0708662;stroke-linecap:round;stroke-linejoin:round;stroke-miterlimit:4;stroke-dasharray:none;stroke-dashoffset:0;stroke-opacity:1;paint-order:normal"
       d="m 192.55316,327.12867 c 0.15805,-0.19937 0.1976,-0.52804 -0.65264,-0.45258 -0.77946,0.0692 -4.71456,0.52004 -5.46856,0.66054 -0.754,0.1405 0.99364,0.40264 0.99364,0.40264 -0.11904,0.81218 -0.57164,1.97501 0.47022,3.00918 0.82384,0.91935 2.07041,0.8057 3.18071,0.5413 0.79874,-0.16074 1.69183,-0.58344 2.1512,-1.25872 0.17821,-0.9069 -0.0837,-2.03827 -0.42414,-2.83144 -0.0284,-0.0705 1.16992,-0.34518 1.09749,-0.33607 z"
       id="path2023"
       inkscape:connector-curvature="0"
       transform="matrix(0.26458333,0,0,0.26458333,33.006049,65.682472)"
       sodipodi:nodetypes="cccccccccc" />
    <path
       style="opacity:1;vector-effect:none;fill:#ebebeb;fill-opacity:1;fill-rule:evenodd;stroke:none;stroke-width:0.0501099;stroke-linecap:round;stroke-linejoin:round;stroke-miterlimit:4;stroke-dasharray:none;stroke-dashoffset:0;stroke-opacity:1;paint-order:normal"
       d="m 224.24579,327.16204 c -0.0976,0.10556 -0.0684,0.16458 -0.14276,0.24751 -0.20265,0.81183 -0.48576,1.69082 -0.29097,2.53081 0.22795,0.52728 0.71628,0.77692 1.12073,1.02139 1.07077,0.52212 2.42326,0.68976 3.55193,0.25783 0.79119,-0.29985 1.21275,-1.20677 1.2106,-2.03345 0.0439,-0.48142 0.11884,-0.98478 -0.12283,-1.43553 0.009,-0.046 1.09651,-0.0868 1.05409,-0.40322 -0.0711,-0.53071 -1.66128,-1.3996 -1.67687,-1.47927 -1.83907,-0.16341 -2.43671,0.95359 -4.28045,0.82458 0,0 -1.08171,0.19035 -1.146,0.25817 -0.0717,0.0756 0.72253,0.21118 0.72253,0.21118 z"
       id="path2025"
       inkscape:connector-curvature="0"
       transform="matrix(0.26458333,0,0,0.26458333,33.006049,65.682472)"
       sodipodi:nodetypes="cccccccsccsc" />
  </g>
</svg>
