<?xml version="1.0" encoding="UTF-8" standalone="no"?>
<!-- Created with Inkscape (http://www.inkscape.org/) -->

<svg
   width="68.552567mm"
   height="19.373611mm"
   viewBox="0 0 68.552567 19.373611"
   version="1.1"
   id="svg1"
   inkscape:version="1.3.2 (091e20e, 2023-11-25, custom)"
   sodipodi:docname="mouse.svg"
   xmlns:inkscape="http://www.inkscape.org/namespaces/inkscape"
   xmlns:sodipodi="http://sodipodi.sourceforge.net/DTD/sodipodi-0.dtd"
   xmlns="http://www.w3.org/2000/svg"
   xmlns:svg="http://www.w3.org/2000/svg">
  <sodipodi:namedview
     id="namedview1"
     pagecolor="#ffffff"
     bordercolor="#666666"
     borderopacity="1.0"
     inkscape:showpageshadow="2"
     inkscape:pageopacity="0.0"
     inkscape:pagecheckerboard="0"
     inkscape:deskcolor="#d1d1d1"
     inkscape:document-units="mm"
     inkscape:zoom="2.0283687"
     inkscape:cx="81.59266"
     inkscape:cy="24.896854"
     inkscape:window-width="1920"
     inkscape:window-height="1001"
     inkscape:window-x="-9"
     inkscape:window-y="-9"
     inkscape:window-maximized="1"
     inkscape:current-layer="layer1">
    <inkscape:page
       x="0"
       y="0"
       width="68.552567"
       height="19.373611"
       id="page1"
       margin="0.5"
       bleed="0" />
  </sodipodi:namedview>
  <defs
     id="defs1" />
  <g
     inkscape:label="Layer 1"
     inkscape:groupmode="layer"
     id="layer1"
     transform="translate(-56.577329,-136.77073)">
    <g
       id="g2"
       transform="translate(25.906979,-15.32177)">
      <path
         style="fill:#d0c9c4;fill-opacity:1;fill-rule:evenodd;stroke:none;stroke-width:0.4;stroke-linecap:round;stroke-linejoin:round;stroke-miterlimit:5.5;stroke-dasharray:none;stroke-opacity:1;paint-order:markers stroke fill"
         d="m 90.542953,156.67037 c 0.454272,0.46231 5.745534,2.77123 6.498069,4.34797 0.753383,0.2191 1.553551,0.45322 1.669646,1.41676 0.116098,0.33006 -0.587632,1.80597 -2.347012,2.83805 -1.471399,-0.11268 -0.920124,0.54667 -1.478434,0.54312 -1.342819,-0.19616 -3.033707,5.1e-4 -3.603129,-0.0255 -1.575331,-0.0251 -3.481805,1.05812 -4.554494,1.61558 0,0 0.636789,1.13057 1.246832,1.02367 0.804309,0.0367 0.798014,-0.66868 1.545105,0.22517 0.464134,0.30258 0.635959,0.56813 0.377269,0.80041 -0.212235,0.0887 -0.397639,0.28088 -0.909226,0.19799 -0.0614,0.006 -0.663755,0.14137 -1.407738,-0.33588 -1.321116,0.12275 -2.411716,-0.35489 -2.721927,-1.30085 -0.120015,0.0115 0.162491,0.73743 1.201889,1.35121 0.676842,0.35861 1.638733,-0.46991 2.171744,0.50273 0.133568,0.14706 0.759758,0.69691 0.340009,0.87378 -0.804061,0.45139 -1.73722,0.0573 -2.733477,0.15179 -1.299205,-0.046 -2.047881,-0.95031 -3.311881,-1.511 -0.798735,-0.43591 -1.380303,-0.87852 -2.922067,-1.08245 -1.492155,0.35004 -9.481871,-0.11379 -11.041771,0.22244 -0.887161,-0.0891 -4.411179,0.33433 -7.171971,0.0703 -1.626451,0.0558 -2.724487,-0.29405 -3.160421,-0.51603 -0.240814,0.1139 0.130492,0.72809 -0.471999,1.01071 -0.766083,0.44589 -0.982575,-0.28672 -1.11739,-0.23279 -1.122461,-0.13639 -0.99309,1.48191 -1.75847,-0.18697 -0.571293,0.26252 -1.567701,0.97172 -1.640783,0.47477 -0.119854,-0.55542 -0.739976,-0.0225 -0.590876,-0.56375 0.342068,-0.60308 0.431686,-1.11506 1.784472,-1.11854 0.383281,-0.28672 0.606952,-0.76 0.607549,-1.04571 0.01091,-0.83509 -1.169693,-2.38176 -1.161425,-3.07629 0.03307,-1.12448 -0.412462,-1.05473 -1.583841,-1.38092 -0.286681,-0.33446 -9.552721,-2.49427 -9.552721,-2.49427 0,0 -0.93049,-0.32985 -1.84487,-0.35885 -3.85891,-0.0772 -6.928517,0.59194 -8.872503,1.7642 -0.191119,0.0478 -2.085922,0.91331 0.461121,-1.18521 2.596653,-1.01037 5.168762,-2.05658 10.824302,-1.42988 1.686554,0.65837 6.424143,0.75066 9.898497,2.06699 1.338807,0.55056 1.014205,0.31086 1.894873,-0.65672 0.829318,-0.66483 0.83538,-1.12557 5.365111,-2.00383 2.826478,0.26278 2.5776,-0.80667 9.702985,-0.22792 2.478639,0.36374 4.680458,0.94828 8.363315,-0.44641 0.698023,-0.08 4.553727,-0.21783 4.64753,-1.03469 0.01112,-1.13933 2.48415,-1.32876 3.729065,-1.06681 -0.309509,-0.52354 -0.725495,-1.09983 -0.659206,-1.41775 0.09007,-1.06767 1.419302,-1.29401 2.42268,0.0797 z"
         id="path5"
         sodipodi:nodetypes="cccccccccccccccccccccccccccccccccccccccccccccc" />
      <path
         d="m 98.110531,161.6987 c 0.225818,0.0806 0.475779,-0.0949 0.600137,0.7364 0.03165,0.41605 -0.407665,1.06504 -0.713459,1.47164 -0.371009,-0.3193 -0.794114,-0.9803 -0.729983,-1.45865 0.07458,-0.55633 0.572121,-0.69604 0.843305,-0.74939 z"
         style="fill:#cb8f92;fill-opacity:1;fill-rule:evenodd;stroke:none;stroke-width:0.1;stroke-linecap:round;stroke-linejoin:round;stroke-miterlimit:5.5;stroke-dasharray:none;stroke-opacity:1;paint-order:markers stroke fill"
         id="path6"
         sodipodi:nodetypes="ccccc" />
      <path
         d="m 85.838079,170.89637 c 0.996257,-0.0945 1.929416,0.2996 2.733477,-0.15179 0.419749,-0.17687 -0.206441,-0.72672 -0.340009,-0.87378 -0.533011,-0.97264 -1.494902,-0.14412 -2.171744,-0.50273 -1.039398,-0.61378 -1.321904,-1.33971 -1.201889,-1.35121 0.310211,0.94596 1.400811,1.4236 2.721927,1.30085 0.743983,0.47725 1.346338,0.34188 1.407738,0.33588 0.511587,0.0829 0.696991,-0.10929 0.909226,-0.19799 0.25869,-0.23228 0.08687,-0.49783 -0.377269,-0.80041 -0.747091,-0.89385 -0.740796,-0.18847 -1.545105,-0.22517 -0.610043,0.1069 -1.246832,-1.02367 -1.246832,-1.02367 -0.429948,0.45475 -1.166888,0.54436 -1.869687,0.61051 -1.145918,-0.46188 -3.324658,0.26051 -2.898794,1.04575 0.244187,0.16436 0.872242,0.47434 1.545935,0.85886 0.738601,0.48207 1.608271,0.9774 2.333026,0.9749 z"
         style="fill:#cb8f92;fill-opacity:1;fill-rule:evenodd;stroke:none;stroke-width:0.1;stroke-linecap:round;stroke-linejoin:round;stroke-miterlimit:5.5;stroke-dasharray:none;stroke-opacity:1;paint-order:markers stroke fill"
         id="path7"
         sodipodi:nodetypes="ccccccccccccccc" />
      <path
         d="m 83.184845,155.95355 c 0.01112,-1.13933 2.48415,-1.32876 3.729065,-1.06681 -0.309509,-0.52354 -0.725495,-1.09983 -0.659206,-1.41775 0.09007,-1.06767 1.419302,-1.29401 2.42268,0.0797 l 0.870051,1.47696 c -0.758075,0.82407 -1.655121,0.75559 -2.633525,-0.13891 0.98118,1.04501 1.683726,2.01075 1.944065,3.52848 -0.06621,2.13618 -0.86283,2.81607 -2.660371,2.59901 -0.993909,-1.90597 -2.778898,-3.16641 -3.012759,-5.06068 z"
         style="fill:#cb8f92;fill-opacity:1;fill-rule:evenodd;stroke:none;stroke-width:0.1;stroke-linecap:round;stroke-linejoin:round;stroke-miterlimit:5.5;stroke-dasharray:none;stroke-opacity:1;paint-order:markers stroke fill"
         id="path8"
         sodipodi:nodetypes="ccccccccc" />
      <path
         d="m 52.297205,161.96014 c -0.286681,-0.33446 -9.552721,-2.49427 -9.552721,-2.49427 0,0 -0.93049,-0.32985 -1.84487,-0.35885 -3.85891,-0.0772 -6.928517,0.59194 -8.872503,1.7642 -0.191119,0.0478 -2.085922,0.91331 0.461121,-1.18521 2.596653,-1.01037 5.168762,-2.05658 10.824302,-1.42988 1.686554,0.65838 6.424143,0.75066 9.898497,2.06699 0,0 0.635275,0.27171 0.947007,0.28978 0.136121,0.22541 -0.06998,1.5713 -0.521982,1.81128 -0.0954,-0.16933 -0.707427,-0.31788 -1.338851,-0.46404"
         style="fill:#cb8f92;fill-opacity:1;fill-rule:evenodd;stroke:none;stroke-width:0.1;stroke-linecap:round;stroke-linejoin:round;stroke-miterlimit:5.5;stroke-dasharray:none;stroke-opacity:1;paint-order:markers stroke fill"
         id="path9"
         sodipodi:nodetypes="cccccccccc" />
      <path
         d="m 58.229968,168.07963 c -0.240814,0.1139 0.130492,0.72809 -0.471999,1.01071 -0.766083,0.44589 -0.982575,-0.28672 -1.11739,-0.23279 -1.122461,-0.13639 -0.99309,1.48191 -1.75847,-0.18697 -0.571293,0.26252 -1.567701,0.97172 -1.640783,0.47477 -0.119854,-0.55542 -0.739976,-0.0225 -0.590876,-0.56375 0.342068,-0.60308 0.431686,-1.11506 1.784472,-1.11854 0.383281,-0.28672 0.606952,-0.76 0.607549,-1.04571 0,0 0.218844,-0.0955 0.557943,-0.1306 0.257246,-0.14027 1.894273,-0.19878 2.01705,0.72496 -0.436797,0.26214 -0.696811,0.27923 -0.203315,0.62929 0.348699,-0.1 0.67719,-0.0109 0.815819,0.43863 z"
         style="fill:#cb8f92;fill-opacity:1;fill-rule:evenodd;stroke:none;stroke-width:0.1;stroke-linecap:round;stroke-linejoin:round;stroke-miterlimit:5.5;stroke-dasharray:none;stroke-opacity:1;paint-order:markers stroke fill"
         id="path10"
         sodipodi:nodetypes="cccccccccccc" />
      <ellipse
         style="fill:#a00d07;fill-opacity:1;fill-rule:evenodd;stroke:none;stroke-width:0.210177;stroke-linecap:square;stroke-miterlimit:5.5;stroke-dasharray:none;stroke-opacity:1;paint-order:markers stroke fill"
         id="ellipse10"
         cx="93.301315"
         cy="160.66737"
         rx="0.81698126"
         ry="0.66536325" />
      <path
         style="fill:none;fill-opacity:1;fill-rule:evenodd;stroke:none;stroke-width:0.1;stroke-linecap:round;stroke-linejoin:round;stroke-miterlimit:5.5;stroke-dasharray:none;stroke-opacity:1;paint-order:markers stroke fill"
         d="m 84.857912,168.01686 c 0,0 1.830488,-0.18932 1.869686,-0.61051"
         id="path11" />
    </g>
  </g>
</svg>
