<?xml version="1.0" encoding="UTF-8" standalone="no"?>
<!-- Created with Inkscape (http://www.inkscape.org/) -->

<svg
   width="29.031mm"
   height="89.387001mm"
   viewBox="0 0 29.031001 89.387001"
   version="1.1"
   id="svg1"
   inkscape:version="1.3.2 (091e20e, 2023-11-25, custom)"
   sodipodi:docname="pipette_multi_channel.svg"
   xmlns:inkscape="http://www.inkscape.org/namespaces/inkscape"
   xmlns:sodipodi="http://sodipodi.sourceforge.net/DTD/sodipodi-0.dtd"
   xmlns="http://www.w3.org/2000/svg"
   xmlns:svg="http://www.w3.org/2000/svg">
  <sodipodi:namedview
     id="namedview1"
     pagecolor="#ffffff"
     bordercolor="#666666"
     borderopacity="1.0"
     inkscape:showpageshadow="2"
     inkscape:pageopacity="0.0"
     inkscape:pagecheckerboard="0"
     inkscape:deskcolor="#d1d1d1"
     inkscape:document-units="mm"
     inkscape:zoom="1.4342733"
     inkscape:cx="172.90986"
     inkscape:cy="162.103"
     inkscape:window-width="1920"
     inkscape:window-height="1001"
     inkscape:window-x="-9"
     inkscape:window-y="-9"
     inkscape:window-maximized="1"
     inkscape:current-layer="layer1" />
  <defs
     id="defs1" />
  <g
     inkscape:label="Layer 1"
     inkscape:groupmode="layer"
     id="layer1"
     transform="translate(-90.752079,-104.24583)">
    <g
       id="g1">
      <path
         style="fill:#7e8492;fill-opacity:1;stroke:#000000;stroke-width:0.426001;stroke-linejoin:round;stroke-miterlimit:5.5;stroke-dasharray:none;stroke-opacity:1;paint-order:markers stroke fill"
         d="m 103.79576,107.50873 c -0.01,0.27124 1.1e-4,2.04162 1.1e-4,2.04162 l 4.49455,-2.3e-4 -1.1e-4,-2.14171 z"
         id="path18-0" />
      <path
         style="fill:#7e8492;fill-opacity:1;stroke:#000000;stroke-width:0.426001;stroke-linejoin:round;stroke-miterlimit:5.5;stroke-dasharray:none;stroke-opacity:1;paint-order:markers stroke fill"
         d="m 110.54674,109.11095 0.002,35.22862 -9.01195,3.7e-4 -0.13837,-27.36161 c -4.2e-4,-7.87193 -5.370303,-2.14687 -5.800553,-3.21901 -0.54379,-0.36637 0.35873,-1.76369 0.64711,-2.18176 1.67542,-2.48797 4.540823,-2.49891 5.289983,-2.46623 z"
         id="path19-8"
         sodipodi:nodetypes="cccccccc" />
      <rect
         style="fill:#7e8492;fill-opacity:1;stroke:#000000;stroke-width:0.426001;stroke-linejoin:round;stroke-miterlimit:5.5;stroke-dasharray:none;stroke-opacity:1;paint-order:markers stroke fill"
         id="rect18-8"
         width="7.1272154"
         height="2.6185496"
         x="102.47307"
         y="104.9643"
         transform="rotate(-0.00297199)" />
      <g
         id="g19"
         transform="translate(-11.919283,60.659848)">
        <g
           id="g10"
           style="fill:#7e8492;fill-opacity:1;stroke-width:1.13671;stroke-dasharray:none"
           transform="matrix(0.37476684,0,0,0.37476684,78.813144,29.978529)">
          <g
             id="g9"
             transform="translate(-0.40433932)"
             style="fill:#7e8492;fill-opacity:1;stroke-width:1.13671;stroke-dasharray:none">
            <path
               style="fill:#7e8492;fill-opacity:1;stroke:#000000;stroke-width:1.13671;stroke-linejoin:round;stroke-miterlimit:5.5;stroke-dasharray:none;stroke-opacity:1;paint-order:markers stroke fill"
               d="m 74.953681,211.04407 c 0,2.62913 -0.0958,2.43965 0.342409,2.43965 v 2.90196 l 4.195309,0.007 -0.02306,-2.90871 c 0.393762,0 0.262042,0.0545 0.262042,-2.41006 z"
               id="path16-9"
               sodipodi:nodetypes="ccccccc" />
            <path
               style="fill:#7e8492;fill-opacity:1;stroke:#000000;stroke-width:1.13671;stroke-linejoin:round;stroke-miterlimit:5.5;stroke-dasharray:none;stroke-opacity:1;paint-order:markers stroke fill"
               d="m 82.225408,211.04407 c 0,2.62913 -0.0958,2.43965 0.342409,2.43965 v 2.90196 l 4.195309,0.007 -0.02306,-2.90871 c 0.393762,0 0.262042,0.0545 0.262042,-2.41006 z"
               id="path3"
               sodipodi:nodetypes="ccccccc" />
            <path
               style="fill:#7e8492;fill-opacity:1;stroke:#000000;stroke-width:1.13671;stroke-linejoin:round;stroke-miterlimit:5.5;stroke-dasharray:none;stroke-opacity:1;paint-order:markers stroke fill"
               d="m 89.497135,211.04407 c 0,2.62913 -0.0958,2.43965 0.342409,2.43965 v 2.90196 l 4.195309,0.007 -0.02306,-2.90871 c 0.393762,0 0.262042,0.0545 0.262042,-2.41006 z"
               id="path4"
               sodipodi:nodetypes="ccccccc" />
            <path
               style="fill:#7e8492;fill-opacity:1;stroke:#000000;stroke-width:1.13671;stroke-linejoin:round;stroke-miterlimit:5.5;stroke-dasharray:none;stroke-opacity:1;paint-order:markers stroke fill"
               d="m 96.768862,211.04407 c 0,2.62913 -0.0958,2.43965 0.342409,2.43965 v 2.90196 l 4.195309,0.007 -0.0231,-2.90871 c 0.39376,0 0.26204,0.0545 0.26204,-2.41006 z"
               id="path5"
               sodipodi:nodetypes="ccccccc" />
            <path
               style="fill:#7e8492;fill-opacity:1;stroke:#000000;stroke-width:1.13671;stroke-linejoin:round;stroke-miterlimit:5.5;stroke-dasharray:none;stroke-opacity:1;paint-order:markers stroke fill"
               d="m 104.04055,211.04407 c 0,2.62913 -0.0958,2.43965 0.34241,2.43965 v 2.90196 l 4.19531,0.007 -0.0231,-2.90871 c 0.39376,0 0.26204,0.0545 0.26204,-2.41006 z"
               id="path6"
               sodipodi:nodetypes="ccccccc" />
            <path
               style="fill:#7e8492;fill-opacity:1;stroke:#000000;stroke-width:1.13671;stroke-linejoin:round;stroke-miterlimit:5.5;stroke-dasharray:none;stroke-opacity:1;paint-order:markers stroke fill"
               d="m 111.31224,211.04407 c 0,2.62913 -0.0958,2.43965 0.34241,2.43965 v 2.90196 l 4.19531,0.007 -0.0231,-2.90871 c 0.39376,0 0.26204,0.0545 0.26204,-2.41006 z"
               id="path7"
               sodipodi:nodetypes="ccccccc" />
            <path
               style="fill:#7e8492;fill-opacity:1;stroke:#000000;stroke-width:1.13671;stroke-linejoin:round;stroke-miterlimit:5.5;stroke-dasharray:none;stroke-opacity:1;paint-order:markers stroke fill"
               d="m 118.58392,211.04407 c 0,2.62913 -0.0958,2.43965 0.34241,2.43965 v 2.90196 l 4.19531,0.007 -0.0231,-2.90871 c 0.39376,0 0.26204,0.0545 0.26204,-2.41006 z"
               id="path8"
               sodipodi:nodetypes="ccccccc" />
            <path
               style="fill:#7e8492;fill-opacity:1;stroke:#000000;stroke-width:1.13671;stroke-linejoin:round;stroke-miterlimit:5.5;stroke-dasharray:none;stroke-opacity:1;paint-order:markers stroke fill"
               d="m 125.85561,211.04407 c 0,2.62913 -0.0958,2.43965 0.34241,2.43965 v 2.90196 l 4.19531,0.007 -0.0231,-2.90871 c 0.39376,0 0.26204,0.0545 0.26204,-2.41006 z"
               id="path9"
               sodipodi:nodetypes="ccccccc" />
          </g>
        </g>
        <path
           style="fill:#7e8492;fill-opacity:1;fill-rule:evenodd;stroke:#000000;stroke-width:0.226;stroke-miterlimit:41.1;stroke-dasharray:none;stroke-opacity:1"
           d="m 113.4559,83.680192 c -1.29627,-3.74e-4 -9.51031,-0.740625 -9.5638,0.310352 -1.15963,1.413932 -0.38169,23.728376 0.0563,24.937466 0.0341,0.0744 0.65832,0.0949 1.59341,0.15285 h 23.27648 c 1.08228,-0.0314 1.66941,0.055 1.7104,-0.0184 0.64773,-1.57654 0.74115,-24.263873 0.24442,-25.160658 -0.0607,-1.022124 -6.62792,-0.313766 -8.30525,-0.222042 -4.55723,0.08281 -9.01199,3.75e-4 -9.01199,3.75e-4 z"
           id="path1"
           sodipodi:nodetypes="cccccccccc" />
      </g>
    </g>
    <g
       id="g2">
      <path
         style="fill:#20a0f7;fill-opacity:0.416256;stroke:#000000;stroke-width:0.227164;stroke-linejoin:round;stroke-miterlimit:5.5;stroke-dasharray:none;stroke-opacity:1;paint-order:markers stroke fill"
         d="m 113.73929,169.95534 c 0.35777,0.0283 2.16766,0 2.16766,0 l -0.003,2.62125 -0.1856,0.0146 v 11.89777 l -0.8606,8.5305 h -0.23396 l -0.65239,-8.64274 -0.0421,-11.8136 -0.16832,0.0105 z"
         id="path32"
         sodipodi:nodetypes="ccccccccccc" />
      <path
         style="fill:#20a0f7;fill-opacity:0.416256;stroke:#000000;stroke-width:0.227164;stroke-linejoin:round;stroke-miterlimit:5.5;stroke-dasharray:none;stroke-opacity:1;paint-order:markers stroke fill"
         d="m 111.01343,169.95534 c 0.35777,0.0283 2.16766,0 2.16766,0 l -0.003,2.62125 -0.1856,0.0146 v 11.89777 l -0.8606,8.5305 h -0.23396 l -0.65239,-8.64274 -0.0421,-11.8136 -0.16832,0.0105 z"
         id="path13"
         sodipodi:nodetypes="ccccccccccc" />
      <path
         style="fill:#20a0f7;fill-opacity:0.416256;stroke:#000000;stroke-width:0.227164;stroke-linejoin:round;stroke-miterlimit:5.5;stroke-dasharray:none;stroke-opacity:1;paint-order:markers stroke fill"
         d="m 108.28757,169.95534 c 0.35777,0.0283 2.16766,0 2.16766,0 l -0.003,2.62125 -0.1856,0.0146 v 11.89777 l -0.8606,8.5305 h -0.23396 l -0.65239,-8.64274 -0.0421,-11.8136 -0.16832,0.0105 z"
         id="path14"
         sodipodi:nodetypes="ccccccccccc" />
      <path
         style="fill:#20a0f7;fill-opacity:0.416256;stroke:#000000;stroke-width:0.227164;stroke-linejoin:round;stroke-miterlimit:5.5;stroke-dasharray:none;stroke-opacity:1;paint-order:markers stroke fill"
         d="m 105.56171,169.95534 c 0.35777,0.0283 2.16766,0 2.16766,0 l -0.003,2.62125 -0.1856,0.0146 v 11.89777 l -0.8606,8.5305 h -0.23396 l -0.65239,-8.64274 -0.0421,-11.8136 -0.16832,0.0105 z"
         id="path15"
         sodipodi:nodetypes="ccccccccccc" />
      <path
         style="fill:#20a0f7;fill-opacity:0.416256;stroke:#000000;stroke-width:0.227164;stroke-linejoin:round;stroke-miterlimit:5.5;stroke-dasharray:none;stroke-opacity:1;paint-order:markers stroke fill"
         d="m 102.83585,169.95534 c 0.35777,0.0283 2.16766,0 2.16766,0 l -0.003,2.62125 -0.1856,0.0146 v 11.89777 l -0.8606,8.5305 h -0.23396 l -0.65239,-8.64274 -0.0421,-11.8136 -0.16832,0.0105 z"
         id="path16"
         sodipodi:nodetypes="ccccccccccc" />
      <path
         style="fill:#20a0f7;fill-opacity:0.416256;stroke:#000000;stroke-width:0.227164;stroke-linejoin:round;stroke-miterlimit:5.5;stroke-dasharray:none;stroke-opacity:1;paint-order:markers stroke fill"
         d="m 100.10999,169.95534 c 0.35777,0.0283 2.16766,0 2.16766,0 l -0.003,2.62125 -0.1856,0.0146 v 11.89777 l -0.8606,8.5305 h -0.23396 l -0.65239,-8.64274 -0.0421,-11.8136 -0.16832,0.0105 z"
         id="path17"
         sodipodi:nodetypes="ccccccccccc" />
      <path
         style="fill:#20a0f7;fill-opacity:0.416256;stroke:#000000;stroke-width:0.227164;stroke-linejoin:round;stroke-miterlimit:5.5;stroke-dasharray:none;stroke-opacity:1;paint-order:markers stroke fill"
         d="m 97.384127,169.95534 c 0.35777,0.0283 2.16766,0 2.16766,0 l -0.003,2.62125 -0.1856,0.0146 v 11.89777 l -0.8606,8.5305 h -0.23396 l -0.65239,-8.64274 -0.0421,-11.8136 -0.16832,0.0105 z"
         id="path18"
         sodipodi:nodetypes="ccccccccccc" />
      <path
         style="fill:#20a0f7;fill-opacity:0.416256;stroke:#000000;stroke-width:0.227164;stroke-linejoin:round;stroke-miterlimit:5.5;stroke-dasharray:none;stroke-opacity:1;paint-order:markers stroke fill"
         d="m 94.658267,169.95534 c 0.35777,0.0283 2.16766,0 2.16766,0 l -0.003,2.62125 -0.1856,0.0146 v 11.89777 l -0.8606,8.5305 h -0.23396 l -0.65239,-8.64274 -0.0421,-11.8136 -0.16832,0.0105 z"
         id="path19"
         sodipodi:nodetypes="ccccccccccc" />
    </g>
  </g>
</svg>
