<?xml version="1.0" encoding="UTF-8" standalone="no"?>
<!-- Created with Inkscape (http://www.inkscape.org/) -->

<svg
   width="14.647173mm"
   height="96.189194mm"
   viewBox="0 0 14.647173 96.189194"
   version="1.1"
   id="svg1"
   inkscape:version="1.3.2 (091e20e, 2023-11-25, custom)"
   sodipodi:docname="swab.svg"
   xmlns:inkscape="http://www.inkscape.org/namespaces/inkscape"
   xmlns:sodipodi="http://sodipodi.sourceforge.net/DTD/sodipodi-0.dtd"
   xmlns="http://www.w3.org/2000/svg"
   xmlns:svg="http://www.w3.org/2000/svg">
  <sodipodi:namedview
     id="namedview1"
     pagecolor="#ffffff"
     bordercolor="#666666"
     borderopacity="1.0"
     inkscape:showpageshadow="2"
     inkscape:pageopacity="0.0"
     inkscape:pagecheckerboard="0"
     inkscape:deskcolor="#d1d1d1"
     inkscape:document-units="mm"
     inkscape:zoom="1.4342733"
     inkscape:cx="-8.0179975"
     inkscape:cy="186.50559"
     inkscape:window-width="1920"
     inkscape:window-height="1001"
     inkscape:window-x="-9"
     inkscape:window-y="-9"
     inkscape:window-maximized="1"
     inkscape:current-layer="layer1">
    <inkscape:page
       x="0"
       y="0"
       width="14.647173"
       height="96.189194"
       id="page1"
       margin="0.5"
       bleed="0" />
  </sodipodi:namedview>
  <defs
     id="defs1" />
  <g
     inkscape:label="Layer 1"
     inkscape:groupmode="layer"
     id="layer1"
     transform="translate(-97.660418,-100.30625)">
    <g
       id="g153"
       transform="matrix(1.5762227,0,0,1.5762227,-137.51836,-143.93514)">
      <path
         style="fill:#cbae8a;fill-opacity:1;fill-rule:evenodd;stroke:#000000;stroke-width:0.45;stroke-linecap:round;stroke-linejoin:round;stroke-miterlimit:5.5;stroke-dasharray:none;stroke-opacity:1;paint-order:markers stroke fill"
         d="m 152.91818,206.47751 c 0,0 0.18645,3.45171 -0.26417,5.41537 -0.58472,2.4394 0.10924,2.66411 1.01777,2.71304 0.68321,-0.028 1.37655,-0.483 0.74966,-3.04974 -0.38799,-1.60975 -0.74379,-4.73195 -0.57869,-5.11169 0.0574,-0.13195 -0.21509,-5.51749 -0.35477,-12.59714 -0.25438,-12.89328 -0.62819,-32.52587 -0.53678,-33.91231 0,0 -0.75947,-0.80272 -0.7925,-0.0826 -0.0216,0.47192 0.17112,20.4048 0.54325,33.9922 0.14541,7.34165 0.21623,12.63282 0.21623,12.63282 z"
         id="path151"
         sodipodi:nodetypes="ccccccccccc" />
      <path
         d="m 152.94486,209.0276 c -0.009,0.65604 -0.18153,2.63546 -0.29085,2.86528 -0.58472,2.4394 0.10924,2.66411 1.01777,2.71304 0.68321,-0.028 1.37655,-0.483 0.74966,-3.04974 -0.30003,-1.56619 -0.38191,-2.11527 -0.44295,-2.57063 z"
         style="fill:#cfcec5;fill-opacity:1;fill-rule:evenodd;stroke:none;stroke-width:0.1;stroke-linecap:round;stroke-linejoin:round;stroke-miterlimit:5.5;stroke-dasharray:none;stroke-opacity:1;paint-order:markers stroke fill"
         id="path1"
         sodipodi:nodetypes="cccccc" />
    </g>
    <path
       style="fill:#a0ebed;fill-opacity:0.142857;fill-rule:evenodd;stroke:#000000;stroke-width:0.394056;stroke-linecap:round;stroke-linejoin:round;stroke-miterlimit:5.5;stroke-dasharray:none;stroke-opacity:1;paint-order:markers stroke fill"
       d="m 99.936548,191.78467 c 0.883282,5.44689 7.986322,5.41011 8.501562,-0.47844 0.11049,-4.93164 1.0305,-80.084 1.0305,-80.084 -0.052,-1.97781 -8.79559,-3.18345 -9.23209,0.63027 z"
       id="path150"
       sodipodi:nodetypes="ccccc" />
    <g
       id="g154"
       transform="matrix(1.5762227,0,0,1.5762227,-137.51836,-143.93514)">
      <path
         style="fill:#92231d;fill-opacity:1;fill-rule:evenodd;stroke:#000000;stroke-width:0.45;stroke-linecap:round;stroke-linejoin:round;stroke-miterlimit:5.5;stroke-dasharray:none;stroke-opacity:1;paint-order:markers stroke fill"
         d="m 150.21698,156.26604 c 0.91705,-1.04394 6.51411,-1.02784 7.35613,0.14763 0,0.89529 0.1267,3.23397 0.19393,4.69232 -0.0818,0.53993 0.36987,0.77245 0.10091,1.18598 -1.71402,0.98908 -7.34488,0.68845 -7.90712,-0.12877 -0.45482,-0.27189 0.0437,-0.52593 0.0193,-1.05721 0.10454,-1.73331 0.1208,-3.5831 0.2369,-4.83995 z"
         id="path149"
         sodipodi:nodetypes="cccccccc" />
      <path
         style="fill:none;fill-opacity:1;fill-rule:evenodd;stroke:#601713;stroke-width:0.25;stroke-linecap:butt;stroke-linejoin:round;stroke-miterlimit:5.5;stroke-dasharray:none;stroke-opacity:1;paint-order:markers stroke fill"
         d="m 150.09366,156.32441 c -0.0907,1.45034 7.57775,1.33712 7.54962,0.23219"
         id="path152"
         sodipodi:nodetypes="cc" />
      <path
         style="fill:none;fill-opacity:1;fill-rule:evenodd;stroke:#000000;stroke-width:0.25;stroke-linecap:round;stroke-linejoin:round;stroke-miterlimit:5.5;stroke-dasharray:none;stroke-opacity:1;paint-order:markers stroke fill"
         d="m 150.10536,156.17329 c 0.93863,-1.0685 6.66739,-1.05202 7.52921,0.1511 0,0.91636 0.12968,3.31007 0.1985,4.80273 -0.0837,0.55264 0.37857,0.79062 0.10328,1.21388 -1.75434,1.01235 -7.51769,0.70465 -8.09316,-0.13179 -0.46552,-0.27829 0.0447,-0.53831 0.0197,-1.08209 0.10699,-1.7741 0.12365,-3.66741 0.24247,-4.95383 z"
         id="path153"
         sodipodi:nodetypes="cccccccc" />
    </g>
  </g>
</svg>
