<?xml version="1.0" encoding="UTF-8" standalone="no"?>
<!-- Created with Inkscape (http://www.inkscape.org/) -->

<svg
   width="102.27837mm"
   height="112.18017mm"
   viewBox="0 0 102.27837 112.18017"
   version="1.1"
   id="svg1"
   xml:space="preserve"
   inkscape:version="1.3.2 (091e20e, 2023-11-25, custom)"
   sodipodi:docname="vaccine.svg"
   xmlns:inkscape="http://www.inkscape.org/namespaces/inkscape"
   xmlns:sodipodi="http://sodipodi.sourceforge.net/DTD/sodipodi-0.dtd"
   xmlns="http://www.w3.org/2000/svg"
   xmlns:svg="http://www.w3.org/2000/svg"><sodipodi:namedview
     id="namedview1"
     pagecolor="#ffffff"
     bordercolor="#000000"
     borderopacity="0.25"
     inkscape:showpageshadow="2"
     inkscape:pageopacity="0.0"
     inkscape:pagecheckerboard="0"
     inkscape:deskcolor="#d1d1d1"
     inkscape:document-units="mm"
     inkscape:zoom="0.79186012"
     inkscape:cx="194.47879"
     inkscape:cy="363.06917"
     inkscape:window-width="1920"
     inkscape:window-height="1001"
     inkscape:window-x="-9"
     inkscape:window-y="-9"
     inkscape:window-maximized="1"
     inkscape:current-layer="layer1"
     showguides="false"><inkscape:page
       x="0"
       y="0"
       width="102.27837"
       height="112.18017"
       id="page1"
       margin="0.5"
       bleed="0" /></sodipodi:namedview><defs
     id="defs1" /><g
     inkscape:label="Layer 1"
     inkscape:groupmode="layer"
     id="layer1"
     transform="translate(-50.681001,-17.903709)"><g
       id="g2"
       transform="matrix(1.8433468,1.8433468,-1.8433468,1.8433468,158.3205,-158.93921)"><path
         d="m 45.165087,57.358956 0.08538,-3.749526 c 0,0 -1.47099,-0.0467 -1.797878,-0.60708 -0.186497,-1.030186 6.953454,-1.168475 6.117452,0.303539 -0.700472,0.21014 -1.634433,0.303538 -1.634433,0.303538 l -1e-6,3.735847 0.04325,28.012855 c -0.528329,0.330205 -2.080294,0.627389 -3.03789,0.06604 l 0.224114,-28.065214 z"
         style="fill:#43c4d3;fill-opacity:1;stroke:#000000;stroke-width:0.15;stroke-linecap:square;stroke-miterlimit:5.5;paint-order:markers stroke fill"
         id="path1"
         sodipodi:nodetypes="cccccccccc" /><path
         style="fill:#9bdfe8;fill-opacity:0.229075;stroke:#000000;stroke-width:0.15;stroke-linecap:square;stroke-miterlimit:5.5;paint-order:markers stroke fill"
         d="m 48.2625,59.446698 -0.02335,25.933476 c -0.01651,1.469414 -0.23608,2.700394 -0.455165,3.201368 -0.164971,1.041179 -0.453868,1.505049 -0.720049,2.183066 -0.293461,3.165115 -0.132333,12.671712 -0.132333,12.671712 l -0.326887,1.21415 -0.280189,-13.729245 c -0.0467,-0.537028 -0.700471,-1.26085 -1.447641,-2.24151 -0.262505,-0.658751 -0.07191,-1.843603 -0.186793,-3.315565 0,0 -0.116745,-24.283019 -0.140094,-25.870755 -2.174853,-0.149277 -4.850679,-0.543384 -3.549057,-1.681133 2.008019,-0.583727 4.164145,-0.420285 4.164145,-0.420285 l 0.08538,-3.782547 c 0,0 -1.47099,-0.0467 -1.797878,-0.607079 -0.186497,-1.030186 6.953454,-1.168475 6.117452,0.303538 -0.700472,0.21014 -1.634433,0.303538 -1.634433,0.303538 l -1e-6,3.735847 c 0,0 2.94198,0.0934 3.595754,0.560378 1.726071,1.111986 -2.136352,1.486412 -3.268861,1.541046 z"
         id="path2"
         sodipodi:nodetypes="ccccccccccccccccccc" /><path
         d="m 47.063936,90.764609 c -0.293461,3.165115 -0.132333,12.671711 -0.132333,12.671711 l -0.326887,1.21415 -0.280189,-13.729244"
         style="fill:#525656;fill-opacity:1;stroke:#000000;stroke-width:0.15;stroke-linecap:butt;stroke-miterlimit:5.5;paint-order:markers stroke fill"
         id="path1-5" /></g><g
       id="g27"
       transform="matrix(0.69061399,0,0,0.69061399,63.060509,-13.476431)"><g
         id="g26"><g
           id="g30"><g
             id="g25"
             transform="matrix(0.98351341,0,0,1.0000334,1.5485844,-0.005785)"><g
               id="g31"><path
                 style="fill:#d1d3e0;fill-opacity:1;stroke:#000000;stroke-width:1.44799;stroke-linecap:butt;stroke-miterlimit:5.5;stroke-dasharray:none;paint-order:markers stroke fill"
                 d="m 78.592925,123.41299 c 0.163443,-1.37759 -0.583728,-4.24953 2.428302,-4.97335 2.521697,-1.1441 22.390303,-1.56803 26.343403,-0.61674 3.02638,0.47166 4.84761,0.7245 4.79857,5.29622 -0.41227,3.94433 1.29607,5.94242 -3.29444,6.99439 -5.64717,-0.008 -24.777079,0.53414 -27.158683,0.0672 -2.837234,-1.12459 -3.178864,-0.59978 -3.117152,-6.76768 z"
                 id="path4"
                 sodipodi:nodetypes="cccccccc"
                 transform="matrix(1.016763,0,0,0.9999666,-1.5745439,0.00578495)" /><path
                 style="fill:#9de8f3;fill-opacity:0.153355;stroke:#000000;stroke-width:0.723993;stroke-linecap:butt;stroke-miterlimit:5.5;stroke-dasharray:none;paint-order:markers stroke fill"
                 d="m 81.710077,130.56442 -0.105125,6.54124 c 0,0 -0.531646,0.78116 -0.933963,1.1441 -1.260848,0.95731 -7.028066,3.946 -7.19151,7.5184 0.371424,7.46142 -0.368204,41.27611 0.117668,54.00619 0.391836,2.00839 0.915657,3.46665 1.605207,4.17774 1.090102,2.66317 36.826086,4.88453 40.104306,-0.30147 2.81124,-0.0959 1.44187,-21.15904 1.66209,-33.08536 -0.0763,-5.81938 -0.14083,-17.65078 -0.15623,-25.52742 -0.68069,-2.15025 -1.65,-3.77935 -2.9889,-4.52932 -5.6216,-2.06937 -4.94567,-4.12029 -4.95486,-10.0113 -2.12334,0.0131 -23.018225,0.6516 -27.158683,0.0672 z"
                 id="path5"
                 sodipodi:nodetypes="cccccccccccc"
                 transform="matrix(1.016763,0,0,0.9999666,-1.5745439,0.00578495)" /><path
                 style="fill:#ffffff;fill-opacity:1;stroke:#000000;stroke-width:0.365012;stroke-linecap:butt;stroke-miterlimit:5.5;stroke-dasharray:none;paint-order:markers stroke fill"
                 d="m 73.583804,151.56469 c 1.78311,0.9576 31.858436,1.28714 43.250526,0.36256 l 0.2648,40.81537 c -7.13244,1.38686 -34.365821,2.971 -43.644596,0.16425 z"
                 id="path6"
                 sodipodi:nodetypes="ccccc" /><path
                 style="fill:#fdb041;fill-opacity:1;stroke:#000000;stroke-width:0.15;stroke-linecap:butt;stroke-miterlimit:5.5;paint-order:markers stroke fill"
                 d="m 81.167003,152.22556 0.08771,21.67821 c 2.708491,0.67712 29.559907,0.46698 33.949527,-0.51368 0.0467,-1.51768 0.0286,-21.34845 0.0286,-21.34845 -2.14811,0.46698 -30.913714,0.58085 -34.065837,0.18392 z"
                 id="path7"
                 sodipodi:nodetypes="ccccc" /><rect
                 style="fill:#212020;fill-opacity:1;stroke:#000000;stroke-width:0.0638374;stroke-linecap:butt;stroke-miterlimit:5.5;paint-order:markers stroke fill"
                 id="rect7"
                 width="5.0263085"
                 height="0.4032608"
                 x="73.539642"
                 y="156.78464" /><rect
                 style="fill:#212020;fill-opacity:1;stroke:#000000;stroke-width:0.0638374;stroke-linecap:butt;stroke-miterlimit:5.5;paint-order:markers stroke fill"
                 id="rect8"
                 width="5.0263085"
                 height="0.4032608"
                 x="73.539642"
                 y="156.78464" /><rect
                 style="fill:#212020;fill-opacity:1;stroke:#000000;stroke-width:0.0450379;stroke-linecap:butt;stroke-miterlimit:5.5;paint-order:markers stroke fill"
                 id="rect9"
                 width="2.5000374"
                 height="0.40354645"
                 x="73.530243"
                 y="158.12907" /><rect
                 style="fill:#212020;fill-opacity:1;stroke:#000000;stroke-width:0.0450379;stroke-linecap:butt;stroke-miterlimit:5.5;paint-order:markers stroke fill"
                 id="rect10"
                 width="2.5000374"
                 height="0.40354645"
                 x="73.530243"
                 y="160.83868" /><rect
                 style="fill:#212020;fill-opacity:1;stroke:#000000;stroke-width:0.0450379;stroke-linecap:butt;stroke-miterlimit:5.5;paint-order:markers stroke fill"
                 id="rect11"
                 width="2.5000374"
                 height="0.40354645"
                 x="73.530243"
                 y="163.54828" /><rect
                 style="fill:#212020;fill-opacity:1;stroke:#000000;stroke-width:0.0450379;stroke-linecap:butt;stroke-miterlimit:5.5;paint-order:markers stroke fill"
                 id="rect12"
                 width="2.5000374"
                 height="0.40354645"
                 x="73.530243"
                 y="165.48233" /><rect
                 style="fill:#212020;fill-opacity:1;stroke:#000000;stroke-width:0.0450379;stroke-linecap:butt;stroke-miterlimit:5.5;paint-order:markers stroke fill"
                 id="rect13"
                 width="2.5000374"
                 height="0.40354645"
                 x="73.530243"
                 y="168.21599" /><rect
                 style="fill:#212020;fill-opacity:1;stroke:#000000;stroke-width:0.0638374;stroke-linecap:butt;stroke-miterlimit:5.5;paint-order:markers stroke fill"
                 id="rect14"
                 width="5.0263085"
                 height="0.4032608"
                 x="73.539642"
                 y="187.58659" /><rect
                 style="fill:#212020;fill-opacity:1;stroke:#000000;stroke-width:0.0450379;stroke-linecap:butt;stroke-miterlimit:5.5;paint-order:markers stroke fill"
                 id="rect15"
                 width="2.5000374"
                 height="0.40354645"
                 x="73.530243"
                 y="172.55365" /><rect
                 style="fill:#212020;fill-opacity:1;stroke:#000000;stroke-width:0.0450379;stroke-linecap:butt;stroke-miterlimit:5.5;paint-order:markers stroke fill"
                 id="rect16"
                 width="2.5000374"
                 height="0.40354645"
                 x="73.530243"
                 y="184.28427" /><rect
                 style="fill:#212020;fill-opacity:1;stroke:#000000;stroke-width:0.0450379;stroke-linecap:butt;stroke-miterlimit:5.5;paint-order:markers stroke fill"
                 id="rect17"
                 width="2.5000374"
                 height="0.40354645"
                 x="73.530243"
                 y="177.4772" /><path
                 style="fill:#fdb041;fill-opacity:1;stroke:#000000;stroke-width:0.365012;stroke-linecap:butt;stroke-miterlimit:5.5;stroke-dasharray:none;paint-order:markers stroke fill"
                 d="m 81.167003,152.22556 0.08771,21.67821 c 2.708491,0.67712 29.559907,0.46698 33.949527,-0.51368 0.0467,-1.51768 0.0286,-21.34845 0.0286,-21.34845 -2.14811,0.46698 -30.913714,0.58085 -34.065837,0.18392 z"
                 id="path17"
                 sodipodi:nodetypes="ccccc" /><rect
                 style="fill:#212020;fill-opacity:1;stroke:#000000;stroke-width:0.0810245;stroke-linecap:butt;stroke-miterlimit:5.5;paint-order:markers stroke fill"
                 id="rect18"
                 width="2.4640508"
                 height="1.3251559"
                 x="73.531723"
                 y="179.16417" /><rect
                 style="fill:#212020;fill-opacity:1;stroke:#000000;stroke-width:0.0869321;stroke-linecap:butt;stroke-miterlimit:5.5;paint-order:markers stroke fill"
                 id="rect19"
                 width="2.4581432"
                 height="1.5291051"
                 x="73.551193"
                 y="174.06894" /><rect
                 style="fill:#212020;fill-opacity:1;stroke:#000000;stroke-width:0.0559756;stroke-linecap:butt;stroke-miterlimit:5.5;paint-order:markers stroke fill"
                 id="rect20"
                 width="2.4890997"
                 height="0.62609291"
                 x="73.535713"
                 y="170.13145" /><rect
                 style="fill:#212020;fill-opacity:1;stroke:#000000;stroke-width:0.0790722;stroke-linecap:butt;stroke-miterlimit:5.5;paint-order:markers stroke fill"
                 id="rect21"
                 width="2.4660032"
                 height="1.261067"
                 x="73.547256"
                 y="166.323" /><rect
                 style="fill:#212020;fill-opacity:1;stroke:#000000;stroke-width:0.0605812;stroke-linecap:butt;stroke-miterlimit:5.5;paint-order:markers stroke fill"
                 id="rect22"
                 width="2.4844942"
                 height="0.73471898"
                 x="73.53801"
                 y="162.51805" /><rect
                 style="fill:#212020;fill-opacity:1;stroke:#000000;stroke-width:0.0777728;stroke-linecap:butt;stroke-miterlimit:5.5;paint-order:markers stroke fill"
                 id="rect23"
                 width="2.4673026"
                 height="1.2193168"
                 x="73.546608"
                 y="159.07599" /><rect
                 style="fill:#212020;fill-opacity:1;stroke:#000000;stroke-width:0.104517;stroke-linecap:butt;stroke-miterlimit:5.5;paint-order:markers stroke fill"
                 id="rect24"
                 width="2.440558"
                 height="2.226233"
                 x="73.543472"
                 y="181.07719" /><rect
                 style="fill:#212020;fill-opacity:1;stroke:#000000;stroke-width:0.0584991;stroke-linecap:butt;stroke-miterlimit:5.5;paint-order:markers stroke fill"
                 id="rect25"
                 width="2.4865758"
                 height="0.684515"
                 x="73.520462"
                 y="186.18941" /></g></g></g></g></g></g></svg>
